<?xml version="1.0" encoding="utf-8"?>
<!-- Svg Vector Icons : http://www.onlinewebfonts.com/icon -->
<!DOCTYPE svg PUBLIC "-//W3C//DTD SVG 1.1//EN" "http://www.w3.org/Graphics/SVG/1.1/DTD/svg11.dtd">
<svg version="1.1" xmlns="http://www.w3.org/2000/svg" xmlns:xlink="http://www.w3.org/1999/xlink" x="0px" y="0px" viewBox="0 0 1000 1000" enable-background="new 0 0 1000 1000" xml:space="preserve">
<metadata> Svg Vector Icons : http://www.onlinewebfonts.com/icon </metadata>
<g><path d="M836.9,990H163.1c-45.1,0-81.7-36.6-81.7-81.7V91.7C81.5,46.6,118,10,163.1,10h673.8c45.1,0,81.7,36.6,81.7,81.7v816.7C918.5,953.4,882,990,836.9,990z M877.7,91.7c0-22.5-18.3-40.8-40.8-40.8H163.1c-22.5,0-40.8,18.3-40.8,40.8v816.7c0,22.6,18.3,40.8,40.8,40.8h673.8c22.6,0,40.8-18.3,40.8-40.8V91.7z M755.2,745H428.5c-11.3,0-20.4-9.1-20.4-20.4c0-11.3,9.1-20.4,20.4-20.4h326.7c11.3,0,20.4,9.1,20.4,20.4C775.6,735.9,766.5,745,755.2,745z M755.2,520.4H428.5c-11.3,0-20.4-9.1-20.4-20.4s9.1-20.4,20.4-20.4h326.7c11.3,0,20.4,9.1,20.4,20.4S766.5,520.4,755.2,520.4z M755.2,295.8H428.5c-11.3,0-20.4-9.1-20.4-20.4c0-11.3,9.1-20.4,20.4-20.4h326.7c11.3,0,20.4,9.1,20.4,20.4C775.6,286.7,766.5,295.8,755.2,295.8z M265.2,765.4c-22.6,0-40.8-18.3-40.8-40.8c0-22.6,18.3-40.8,40.8-40.8c22.5,0,40.8,18.3,40.8,40.8C306,747.1,287.7,765.4,265.2,765.4z M265.2,540.8c-22.6,0-40.8-18.3-40.8-40.8c0-22.6,18.3-40.8,40.8-40.8c22.5,0,40.8,18.3,40.8,40.8C306,522.5,287.7,540.8,265.2,540.8z M265.2,316.3c-22.6,0-40.8-18.3-40.8-40.8c0-22.6,18.3-40.8,40.8-40.8c22.5,0,40.8,18.3,40.8,40.8C306,298,287.7,316.3,265.2,316.3z"/></g>
</svg>