<svg width="501.48253173828124px" height="118.40878906249999px" xmlns="http://www.w3.org/2000/svg" viewBox="-0.7412658691406193 15.795605468750004 501.48253173828124 118.40878906249999" style="background-image: none; background-position: initial initial; background-repeat: initial initial;" preserveAspectRatio="xMidYMid"><defs><filter id="editing-neon" x="-100%" y="-100%" width="300%" height="300%"><feFlood flood-color="#00ff2f" result="flood"></feFlood><feComposite operator="in" in="flood" in2="SourceAlpha" result="color"></feComposite><feFlood flood-color="#00ff2f" result="flood2"></feFlood><feComposite operator="in" in="flood2" in2="SourceAlpha" result="color2"></feComposite><feMorphology operator="dilate" radius="2" in="color" result="dilate"></feMorphology><feGaussianBlur stdDeviation="6" in="color" result="blur1"></feGaussianBlur><feGaussianBlur stdDeviation="2.5" in="color" result="blur2"></feGaussianBlur><feGaussianBlur stdDeviation="1" in="SourceAlpha" result="blur3"></feGaussianBlur><feGaussianBlur stdDeviation="6" in="dilate" result="blur4"></feGaussianBlur><feConvolveMatrix in="color2" result="conv" order="3,3" divisor="1" kernelMatrix="1 1 1  1 1 1  1 1 1"></feConvolveMatrix><feMerge><feMergeNode in="blur1"></feMergeNode><feMergeNode in="blur2"></feMergeNode><feMergeNode in="blur4"></feMergeNode><feMergeNode in="blur3"></feMergeNode><feMergeNode in="blur3"></feMergeNode><feMergeNode in="blur3"></feMergeNode><feMergeNode in="blur3"></feMergeNode><feMergeNode in="conv"></feMergeNode><feMergeNode in="SourceGraphic"></feMergeNode></feMerge></filter></defs><g filter="url(#editing-neon)"><g transform="translate(72.62500977516174, 98.71781349182129)"><path d="M39.74-6.98L39.74-6.98L39.74-6.98Q39.10-6.98 39.10-7.62L39.10-7.62L39.10-7.62Q39.10-8.26 39.74-8.26L39.74-8.26L39.74-8.26Q40.38-8.26 40.38-7.62L40.38-7.62L40.38-7.62Q40.38-6.98 39.74-6.98ZM38.14-5.12L38.14-5.12L38.14-5.12Q37.50-5.12 37.50-5.76L37.50-5.76L37.50-5.76Q37.50-6.40 38.14-6.40L38.14-6.40L38.14-6.40Q38.78-6.40 38.78-5.76L38.78-5.76L38.78-5.76Q38.78-5.12 38.14-5.12ZM36.16-3.33L36.16-3.33L36.16-3.33Q35.52-3.33 35.52-3.97L35.52-3.97L35.52-3.97Q35.52-4.61 36.16-4.61L36.16-4.61L36.16-4.61Q36.80-4.61 36.80-3.97L36.80-3.97L36.80-3.97Q36.80-3.33 36.16-3.33ZM33.92-1.92L33.92-1.92L33.92-1.92Q33.28-1.92 33.28-2.56L33.28-2.56L33.28-2.56Q33.28-3.20 33.92-3.20L33.92-3.20L33.92-3.20Q34.56-3.20 34.56-2.56L34.56-2.56L34.56-2.56Q34.56-1.92 33.92-1.92ZM31.42-0.83L31.42-0.83L31.42-0.83Q30.78-0.83 30.78-1.47L30.78-1.47L30.78-1.47Q30.78-2.11 31.42-2.11L31.42-2.11L31.42-2.11Q32.06-2.11 32.06-1.47L32.06-1.47L32.06-1.47Q32.06-0.83 31.42-0.83ZM28.80-0.06L28.80-0.06L28.80-0.06Q28.16-0.06 28.16-0.70L28.16-0.70L28.16-0.70Q28.16-1.34 28.80-1.34L28.80-1.34L28.80-1.34Q29.44-1.34 29.44-0.70L29.44-0.70L29.44-0.70Q29.44-0.06 28.80-0.06ZM26.11 0.32L26.11 0.32L26.11 0.32Q25.47 0.32 25.47-0.32L25.47-0.32L25.47-0.32Q25.47-0.96 26.11-0.96L26.11-0.96L26.11-0.96Q26.75-0.96 26.75-0.32L26.75-0.32L26.75-0.32Q26.75 0.32 26.11 0.32ZM23.42 0.38L23.42 0.38L23.42 0.38Q22.78 0.38 22.78-0.26L22.78-0.26L22.78-0.26Q22.78-0.90 23.42-0.90L23.42-0.90L23.42-0.90Q24.06-0.90 24.06-0.26L24.06-0.26L24.06-0.26Q24.06 0.38 23.42 0.38ZM20.74 0L20.74 0L20.74 0Q20.10 0 20.10-0.64L20.10-0.64L20.10-0.64Q20.10-1.28 20.74-1.28L20.74-1.28L20.74-1.28Q21.38-1.28 21.38-0.64L21.38-0.64L21.38-0.64Q21.38 0 20.74 0ZM18.18-0.83L18.18-0.83L18.18-0.83Q17.54-0.83 17.54-1.47L17.54-1.47L17.54-1.47Q17.54-2.11 18.18-2.11L18.18-2.11L18.18-2.11Q18.82-2.11 18.82-1.47L18.82-1.47L18.82-1.47Q18.82-0.83 18.18-0.83ZM15.68-2.05L15.68-2.05L15.68-2.05Q15.04-2.05 15.04-2.69L15.04-2.69L15.04-2.69Q15.04-3.33 15.68-3.33L15.68-3.33L15.68-3.33Q16.32-3.33 16.32-2.69L16.32-2.69L16.32-2.69Q16.32-2.05 15.68-2.05ZM3.90-21.70L3.90-21.70L3.90-21.70Q3.26-21.70 3.26-22.34L3.26-22.34L3.26-22.34Q3.26-22.98 3.90-22.98L3.90-22.98L3.90-22.98Q4.54-22.98 4.54-22.34L4.54-22.34L4.54-22.34Q4.54-21.70 3.90-21.70ZM4.10-19.01L4.10-19.01L4.10-19.01Q3.46-19.01 3.46-19.65L3.46-19.65L3.46-19.65Q3.46-20.29 4.10-20.29L4.10-20.29L4.10-20.29Q4.74-20.29 4.74-19.65L4.74-19.65L4.74-19.65Q4.74-19.01 4.10-19.01ZM4.67-16.38L4.67-16.38L4.67-16.38Q4.03-16.38 4.03-17.02L4.03-17.02L4.03-17.02Q4.03-17.66 4.67-17.66L4.67-17.66L4.67-17.66Q5.31-17.66 5.31-17.02L5.31-17.02L5.31-17.02Q5.31-16.38 4.67-16.38ZM5.50-13.70L5.50-13.70L5.50-13.70Q4.86-13.70 4.86-14.34L4.86-14.34L4.86-14.34Q4.86-14.98 5.50-14.98L5.50-14.98L5.50-14.98Q6.14-14.98 6.14-14.34L6.14-14.34L6.14-14.34Q6.14-13.70 5.50-13.70ZM6.66-11.33L6.66-11.33L6.66-11.33Q6.02-11.33 6.02-11.97L6.02-11.97L6.02-11.97Q6.02-12.61 6.66-12.61L6.66-12.61L6.66-12.61Q7.30-12.61 7.30-11.97L7.30-11.97L7.30-11.97Q7.30-11.33 6.66-11.33ZM7.81-9.15L7.81-9.15L7.81-9.15Q7.17-9.15 7.17-9.79L7.17-9.79L7.17-9.79Q7.17-10.43 7.81-10.43L7.81-10.43L7.81-10.43Q8.45-10.43 8.45-9.79L8.45-9.79L8.45-9.79Q8.45-9.15 7.81-9.15ZM9.54-7.04L9.54-7.04L9.54-7.04Q8.90-7.04 8.90-7.68L8.90-7.68L8.90-7.68Q8.90-8.32 9.54-8.32L9.54-8.32L9.54-8.32Q10.18-8.32 10.18-7.68L10.18-7.68L10.18-7.68Q10.18-7.04 9.54-7.04ZM11.39-5.18L11.39-5.18L11.39-5.18Q10.75-5.18 10.75-5.82L10.75-5.82L10.75-5.82Q10.75-6.46 11.39-6.46L11.39-6.46L11.39-6.46Q12.03-6.46 12.03-5.82L12.03-5.82L12.03-5.82Q12.03-5.18 11.39-5.18ZM13.50-3.52L13.50-3.52L13.50-3.52Q12.86-3.52 12.86-4.16L12.86-4.16L12.86-4.16Q12.86-4.80 13.50-4.80L13.50-4.80L13.50-4.80Q14.14-4.80 14.14-4.16L14.14-4.16L14.14-4.16Q14.14-3.52 13.50-3.52ZM40.45-36.10L40.45-36.10L40.45-36.10Q41.09-36.10 41.09-35.46L41.09-35.46L41.09-35.46Q41.09-34.82 40.45-34.82L40.45-34.82L40.45-34.82Q39.81-34.82 39.81-35.46L39.81-35.46L39.81-35.46Q39.81-36.10 40.45-36.10ZM39.04-38.27L39.04-38.27L39.04-38.27Q39.68-38.27 39.68-37.63L39.68-37.63L39.68-37.63Q39.68-36.99 39.04-36.99L39.04-36.99L39.04-36.99Q38.40-36.99 38.40-37.63L38.40-37.63L38.40-37.63Q38.40-38.27 39.04-38.27ZM37.31-40.32L37.31-40.32L37.31-40.32Q37.95-40.32 37.95-39.68L37.95-39.68L37.95-39.68Q37.95-39.04 37.31-39.04L37.31-39.04L37.31-39.04Q36.67-39.04 36.67-39.68L36.67-39.68L36.67-39.68Q36.67-40.32 37.31-40.32ZM35.33-42.11L35.33-42.11L35.33-42.11Q35.97-42.11 35.97-41.47L35.97-41.47L35.97-41.47Q35.97-40.83 35.33-40.83L35.33-40.83L35.33-40.83Q34.69-40.83 34.69-41.47L34.69-41.47L34.69-41.47Q34.69-42.11 35.33-42.11ZM32.96-43.46L32.96-43.46L32.96-43.46Q33.60-43.46 33.60-42.82L33.60-42.82L33.60-42.82Q33.60-42.18 32.96-42.18L32.96-42.18L32.96-42.18Q32.32-42.18 32.32-42.82L32.32-42.82L32.32-42.82Q32.32-43.46 32.96-43.46ZM30.53-44.48L30.53-44.48L30.53-44.48Q31.17-44.48 31.17-43.84L31.17-43.84L31.17-43.84Q31.17-43.20 30.53-43.20L30.53-43.20L30.53-43.20Q29.89-43.20 29.89-43.84L29.89-43.84L29.89-43.84Q29.89-44.48 30.53-44.48ZM28.03-45.25L28.03-45.25L28.03-45.25Q28.67-45.25 28.67-44.61L28.67-44.61L28.67-44.61Q28.67-43.97 28.03-43.97L28.03-43.97L28.03-43.97Q27.39-43.97 27.39-44.61L27.39-44.61L27.39-44.61Q27.39-45.25 28.03-45.25ZM25.47-45.57L25.47-45.57L25.47-45.57Q26.11-45.57 26.11-44.93L26.11-44.93L26.11-44.93Q26.11-44.29 25.47-44.29L25.47-44.29L25.47-44.29Q24.83-44.29 24.83-44.93L24.83-44.93L24.83-44.93Q24.83-45.57 25.47-45.57ZM22.85-45.57L22.85-45.57L22.85-45.57Q23.49-45.57 23.49-44.93L23.49-44.93L23.49-44.93Q23.49-44.29 22.85-44.29L22.85-44.29L22.85-44.29Q22.21-44.29 22.21-44.93L22.21-44.93L22.21-44.93Q22.21-45.57 22.85-45.57ZM20.29-45.18L20.29-45.18L20.29-45.18Q20.93-45.18 20.93-44.54L20.93-44.54L20.93-44.54Q20.93-43.90 20.29-43.90L20.29-43.90L20.29-43.90Q19.65-43.90 19.65-44.54L19.65-44.54L19.65-44.54Q19.65-45.18 20.29-45.18ZM17.66-44.42L17.66-44.42L17.66-44.42Q18.30-44.42 18.30-43.78L18.30-43.78L18.30-43.78Q18.30-43.14 17.66-43.14L17.66-43.14L17.66-43.14Q17.02-43.14 17.02-43.78L17.02-43.78L17.02-43.78Q17.02-44.42 17.66-44.42ZM15.23-43.39L15.23-43.39L15.23-43.39Q15.87-43.39 15.87-42.75L15.87-42.75L15.87-42.75Q15.87-42.11 15.23-42.11L15.23-42.11L15.23-42.11Q14.59-42.11 14.59-42.75L14.59-42.75L14.59-42.75Q14.59-43.39 15.23-43.39ZM3.97-25.73L3.97-25.73L3.97-25.73Q4.61-25.73 4.61-25.09L4.61-25.09L4.61-25.09Q4.61-24.45 3.97-24.45L3.97-24.45L3.97-24.45Q3.33-24.45 3.33-25.09L3.33-25.09L3.33-25.09Q3.33-25.73 3.97-25.73ZM4.35-28.35L4.35-28.35L4.35-28.35Q4.99-28.35 4.99-27.71L4.99-27.71L4.99-27.71Q4.99-27.07 4.35-27.07L4.35-27.07L4.35-27.07Q3.71-27.07 3.71-27.71L3.71-27.71L3.71-27.71Q3.71-28.35 4.35-28.35ZM5.06-30.91L5.06-30.91L5.06-30.91Q5.70-30.91 5.70-30.27L5.70-30.27L5.70-30.27Q5.70-29.63 5.06-29.63L5.06-29.63L5.06-29.63Q4.42-29.63 4.42-30.27L4.42-30.27L4.42-30.27Q4.42-30.91 5.06-30.91ZM6.02-33.47L6.02-33.47L6.02-33.47Q6.66-33.47 6.66-32.83L6.66-32.83L6.66-32.83Q6.66-32.19 6.02-32.19L6.02-32.19L6.02-32.19Q5.38-32.19 5.38-32.83L5.38-32.83L5.38-32.83Q5.38-33.47 6.02-33.47ZM7.30-35.78L7.30-35.78L7.30-35.78Q7.94-35.78 7.94-35.14L7.94-35.14L7.94-35.14Q7.94-34.50 7.30-34.50L7.30-34.50L7.30-34.50Q6.66-34.50 6.66-35.14L6.66-35.14L6.66-35.14Q6.66-35.78 7.30-35.78ZM8.83-37.95L8.83-37.95L8.83-37.95Q9.47-37.95 9.47-37.31L9.47-37.31L9.47-37.31Q9.47-36.67 8.83-36.67L8.83-36.67L8.83-36.67Q8.19-36.67 8.19-37.31L8.19-37.31L8.19-37.31Q8.19-37.95 8.83-37.95ZM10.75-40.13L10.75-40.13L10.75-40.13Q11.39-40.13 11.39-39.49L11.39-39.49L11.39-39.49Q11.39-38.85 10.75-38.85L10.75-38.85L10.75-38.85Q10.11-38.85 10.11-39.49L10.11-39.49L10.11-39.49Q10.11-40.13 10.75-40.13ZM12.86-41.92L12.86-41.92L12.86-41.92Q13.50-41.92 13.50-41.28L13.50-41.28L13.50-41.28Q13.50-40.64 12.86-40.64L12.86-40.64L12.86-40.64Q12.22-40.64 12.22-41.28L12.22-41.28L12.22-41.28Q12.22-41.92 12.86-41.92ZM41.47-12.42L41.47-12.42L41.47-12.42Q40.83-12.42 40.83-13.06L40.83-13.06L40.83-13.06Q40.83-13.70 41.47-13.70L41.47-13.70L41.47-13.70Q42.11-13.70 42.11-13.06L42.11-13.06L42.11-13.06Q42.11-12.42 41.47-12.42ZM41.47-9.79L41.47-9.79L41.47-9.79Q40.83-9.79 40.83-10.43L40.83-10.43L40.83-10.43Q40.83-11.07 41.47-11.07L41.47-11.07L41.47-11.07Q42.11-11.07 42.11-10.43L42.11-10.43L42.11-10.43Q42.11-9.79 41.47-9.79ZM41.54-7.36L41.54-7.36L41.54-7.36Q40.90-7.36 40.90-8L40.90-8L40.90-8Q40.90-8.64 41.54-8.64L41.54-8.64L41.54-8.64Q42.18-8.64 42.18-8L42.18-8L42.18-8Q42.18-7.36 41.54-7.36ZM41.47-4.93L41.47-4.93L41.47-4.93Q40.83-4.93 40.83-5.57L40.83-5.57L40.83-5.57Q40.83-6.21 41.47-6.21L41.47-6.21L41.47-6.21Q42.11-6.21 42.11-5.57L42.11-5.57L42.11-5.57Q42.11-4.93 41.47-4.93ZM41.47-20.03L41.47-20.03L41.47-20.03Q40.83-20.03 40.83-20.67L40.83-20.67L40.83-20.67Q40.83-21.31 41.47-21.31L41.47-21.31L41.47-21.31Q42.11-21.31 42.11-20.67L42.11-20.67L42.11-20.67Q42.11-20.03 41.47-20.03ZM41.47-17.47L41.47-17.47L41.47-17.47Q40.83-17.47 40.83-18.11L40.83-18.11L40.83-18.11Q40.83-18.75 41.47-18.75L41.47-18.75L41.47-18.75Q42.11-18.75 42.11-18.11L42.11-18.11L42.11-18.11Q42.11-17.47 41.47-17.47ZM41.47-14.91L41.47-14.91L41.47-14.91Q40.83-14.91 40.83-15.55L40.83-15.55L40.83-15.55Q40.83-16.19 41.47-16.19L41.47-16.19L41.47-16.19Q42.11-16.19 42.11-15.55L42.11-15.55L42.11-15.55Q42.11-14.91 41.47-14.91ZM41.47-2.37L41.47-2.37L41.47-2.37Q40.83-2.37 40.83-3.01L40.83-3.01L40.83-3.01Q40.83-3.65 41.47-3.65L41.47-3.65L41.47-3.65Q42.11-3.65 42.11-3.01L42.11-3.01L42.11-3.01Q42.11-2.37 41.47-2.37ZM41.47 0.19L41.47 0.19L41.47 0.19Q40.83 0.19 40.83-0.45L40.83-0.45L40.83-0.45Q40.83-1.09 41.47-1.09L41.47-1.09L41.47-1.09Q42.11-1.09 42.11-0.45L42.11-0.45L42.11-0.45Q42.11 0.19 41.47 0.19ZM30.21-20.10L30.21-20.10L30.21-20.10Q29.57-20.10 29.57-20.74L29.57-20.74L29.57-20.74Q29.57-21.38 30.21-21.38L30.21-21.38L30.21-21.38Q30.85-21.38 30.85-20.74L30.85-20.74L30.85-20.74Q30.85-20.10 30.21-20.10ZM32.45-20.10L32.45-20.10L32.45-20.10Q31.81-20.10 31.81-20.74L31.81-20.74L31.81-20.74Q31.81-21.38 32.45-21.38L32.45-21.38L32.45-21.38Q33.09-21.38 33.09-20.74L33.09-20.74L33.09-20.74Q33.09-20.10 32.45-20.10ZM34.69-20.10L34.69-20.10L34.69-20.10Q34.05-20.10 34.05-20.74L34.05-20.74L34.05-20.74Q34.05-21.38 34.69-21.38L34.69-21.38L34.69-21.38Q35.33-21.38 35.33-20.74L35.33-20.74L35.33-20.74Q35.33-20.10 34.69-20.10ZM36.93-20.10L36.93-20.10L36.93-20.10Q36.29-20.10 36.29-20.74L36.29-20.74L36.29-20.74Q36.29-21.38 36.93-21.38L36.93-21.38L36.93-21.38Q37.57-21.38 37.57-20.74L37.57-20.74L37.57-20.74Q37.57-20.10 36.93-20.10ZM39.17-20.10L39.17-20.10L39.17-20.10Q38.53-20.10 38.53-20.74L38.53-20.74L38.53-20.74Q38.53-21.38 39.17-21.38L39.17-21.38L39.17-21.38Q39.81-21.38 39.81-20.74L39.81-20.74L39.81-20.74Q39.81-20.10 39.17-20.10ZM59.39-31.74L59.39-31.74L59.39-31.74Q58.75-31.74 58.75-32.38L58.75-32.38L58.75-32.38Q58.75-33.02 59.39-33.02L59.39-33.02L59.39-33.02Q60.03-33.02 60.03-32.38L60.03-32.38L60.03-32.38Q60.03-31.74 59.39-31.74ZM61.95-32.19L61.95-32.19L61.95-32.19Q61.31-32.19 61.31-32.83L61.31-32.83L61.31-32.83Q61.31-33.47 61.95-33.47L61.95-33.47L61.95-33.47Q62.59-33.47 62.59-32.83L62.59-32.83L62.59-32.83Q62.59-32.19 61.95-32.19ZM64.58-32.19L64.58-32.19L64.58-32.19Q63.94-32.19 63.94-32.83L63.94-32.83L63.94-32.83Q63.94-33.47 64.58-33.47L64.58-33.47L64.58-33.47Q65.22-33.47 65.22-32.83L65.22-32.83L65.22-32.83Q65.22-32.19 64.58-32.19ZM67.07-31.68L67.07-31.68L67.07-31.68Q66.43-31.68 66.43-32.32L66.43-32.32L66.43-32.32Q66.43-32.96 67.07-32.96L67.07-32.96L67.07-32.96Q67.71-32.96 67.71-32.32L67.71-32.32L67.71-32.32Q67.71-31.68 67.07-31.68ZM54.72-29.82L54.72-29.82L54.72-29.82Q54.08-29.82 54.08-30.46L54.08-30.46L54.08-30.46Q54.08-31.10 54.72-31.10L54.72-31.10L54.72-31.10Q55.36-31.10 55.36-30.46L55.36-30.46L55.36-30.46Q55.36-29.82 54.72-29.82ZM69.38-30.59L69.38-30.59L69.38-30.59Q68.74-30.59 68.74-31.23L68.74-31.23L68.74-31.23Q68.74-31.87 69.38-31.87L69.38-31.87L69.38-31.87Q70.02-31.87 70.02-31.23L70.02-31.23L70.02-31.23Q70.02-30.59 69.38-30.59ZM71.42-28.99L71.42-28.99L71.42-28.99Q70.78-28.99 70.78-29.63L70.78-29.63L70.78-29.63Q70.78-30.27 71.42-30.27L71.42-30.27L71.42-30.27Q72.06-30.27 72.06-29.63L72.06-29.63L72.06-29.63Q72.06-28.99 71.42-28.99ZM72.96-26.88L72.96-26.88L72.96-26.88Q72.32-26.88 72.32-27.52L72.32-27.52L72.32-27.52Q72.32-28.16 72.96-28.16L72.96-28.16L72.96-28.16Q73.60-28.16 73.60-27.52L73.60-27.52L73.60-27.52Q73.60-26.88 72.96-26.88ZM73.98-24.51L73.98-24.51L73.98-24.51Q73.34-24.51 73.34-25.15L73.34-25.15L73.34-25.15Q73.34-25.79 73.98-25.79L73.98-25.79L73.98-25.79Q74.62-25.79 74.62-25.15L74.62-25.15L74.62-25.15Q74.62-24.51 73.98-24.51ZM74.43-21.95L74.43-21.95L74.43-21.95Q73.79-21.95 73.79-22.59L73.79-22.59L73.79-22.59Q73.79-23.23 74.43-23.23L74.43-23.23L74.43-23.23Q75.07-23.23 75.07-22.59L75.07-22.59L75.07-22.59Q75.07-21.95 74.43-21.95ZM74.56-19.39L74.56-19.39L74.56-19.39Q73.92-19.39 73.92-20.03L73.92-20.03L73.92-20.03Q73.92-20.67 74.56-20.67L74.56-20.67L74.56-20.67Q75.20-20.67 75.20-20.03L75.20-20.03L75.20-20.03Q75.20-19.39 74.56-19.39ZM56.58-16.83L56.58-16.83L56.58-16.83Q55.94-16.83 55.94-17.47L55.94-17.47L55.94-17.47Q55.94-18.11 56.58-18.11L56.58-18.11L56.58-18.11Q57.22-18.11 57.22-17.47L57.22-17.47L57.22-17.47Q57.22-16.83 56.58-16.83ZM59.14-17.54L59.14-17.54L59.14-17.54Q58.50-17.54 58.50-18.18L58.50-18.18L58.50-18.18Q58.50-18.82 59.14-18.82L59.14-18.82L59.14-18.82Q59.78-18.82 59.78-18.18L59.78-18.18L59.78-18.18Q59.78-17.54 59.14-17.54ZM69.70-16.64L69.70-16.64L69.70-16.64Q69.06-16.64 69.06-17.28L69.06-17.28L69.06-17.28Q69.06-17.92 69.70-17.92L69.70-17.92L69.70-17.92Q70.34-17.92 70.34-17.28L70.34-17.28L70.34-17.28Q70.34-16.64 69.70-16.64ZM72.19-15.68L72.19-15.68L72.19-15.68Q71.55-15.68 71.55-16.32L71.55-16.32L71.55-16.32Q71.55-16.96 72.19-16.96L72.19-16.96L72.19-16.96Q72.83-16.96 72.83-16.32L72.83-16.32L72.83-16.32Q72.83-15.68 72.19-15.68ZM74.50-16.70L74.50-16.70L74.50-16.70Q73.86-16.70 73.86-17.34L73.86-17.34L73.86-17.34Q73.86-17.98 74.50-17.98L74.50-17.98L74.50-17.98Q75.14-17.98 75.14-17.34L75.14-17.34L75.14-17.34Q75.14-16.70 74.50-16.70ZM52.03-14.08L52.03-14.08L52.03-14.08Q51.39-14.08 51.39-14.72L51.39-14.72L51.39-14.72Q51.39-15.36 52.03-15.36L52.03-15.36L52.03-15.36Q52.67-15.36 52.67-14.72L52.67-14.72L52.67-14.72Q52.67-14.08 52.03-14.08ZM74.50-14.08L74.50-14.08L74.50-14.08Q73.86-14.08 73.86-14.72L73.86-14.72L73.86-14.72Q73.86-15.36 74.50-15.36L74.50-15.36L74.50-15.36Q75.14-15.36 75.14-14.72L75.14-14.72L75.14-14.72Q75.14-14.08 74.50-14.08ZM50.43-11.52L50.43-11.52L50.43-11.52Q49.79-11.52 49.79-12.16L49.79-12.16L49.79-12.16Q49.79-12.80 50.43-12.80L50.43-12.80L50.43-12.80Q51.07-12.80 51.07-12.16L51.07-12.16L51.07-12.16Q51.07-11.52 50.43-11.52ZM74.50-11.52L74.50-11.52L74.50-11.52Q73.86-11.52 73.86-12.16L73.86-12.16L73.86-12.16Q73.86-12.80 74.50-12.80L74.50-12.80L74.50-12.80Q75.14-12.80 75.14-12.16L75.14-12.16L75.14-12.16Q75.14-11.52 74.50-11.52ZM74.50-8.96L74.50-8.96L74.50-8.96Q73.86-8.96 73.86-9.60L73.86-9.60L73.86-9.60Q73.86-10.24 74.50-10.24L74.50-10.24L74.50-10.24Q75.14-10.24 75.14-9.60L75.14-9.60L75.14-9.60Q75.14-8.96 74.50-8.96ZM50.43-6.40L50.43-6.40L50.43-6.40Q49.79-6.40 49.79-7.04L49.79-7.04L49.79-7.04Q49.79-7.68 50.43-7.68L50.43-7.68L50.43-7.68Q51.07-7.68 51.07-7.04L51.07-7.04L51.07-7.04Q51.07-6.40 50.43-6.40ZM74.30-6.40L74.30-6.40L74.30-6.40Q73.66-6.40 73.66-7.04L73.66-7.04L73.66-7.04Q73.66-7.68 74.30-7.68L74.30-7.68L74.30-7.68Q74.94-7.68 74.94-7.04L74.94-7.04L74.94-7.04Q74.94-6.40 74.30-6.40ZM51.52-3.97L51.52-3.97L51.52-3.97Q50.88-3.97 50.88-4.61L50.88-4.61L50.88-4.61Q50.88-5.25 51.52-5.25L51.52-5.25L51.52-5.25Q52.16-5.25 52.16-4.61L52.16-4.61L52.16-4.61Q52.16-3.97 51.52-3.97ZM72.26-4.67L72.26-4.67L72.26-4.67Q71.62-4.67 71.62-5.31L71.62-5.31L71.62-5.31Q71.62-5.95 72.26-5.95L72.26-5.95L72.26-5.95Q72.90-5.95 72.90-5.31L72.90-5.31L72.90-5.31Q72.90-4.67 72.26-4.67ZM74.82-3.84L74.82-3.84L74.82-3.84Q74.18-3.84 74.18-4.48L74.18-4.48L74.18-4.48Q74.18-5.12 74.82-5.12L74.82-5.12L74.82-5.12Q75.46-5.12 75.46-4.48L75.46-4.48L75.46-4.48Q75.46-3.84 74.82-3.84ZM53.25-2.05L53.25-2.05L53.25-2.05Q52.61-2.05 52.61-2.69L52.61-2.69L52.61-2.69Q52.61-3.33 53.25-3.33L53.25-3.33L53.25-3.33Q53.89-3.33 53.89-2.69L53.89-2.69L53.89-2.69Q53.89-2.05 53.25-2.05ZM68.10-1.54L68.10-1.54L68.10-1.54Q67.46-1.54 67.46-2.18L67.46-2.18L67.46-2.18Q67.46-2.82 68.10-2.82L68.10-2.82L68.10-2.82Q68.74-2.82 68.74-2.18L68.74-2.18L68.74-2.18Q68.74-1.54 68.10-1.54ZM70.21-2.82L70.21-2.82L70.21-2.82Q69.57-2.82 69.57-3.46L69.57-3.46L69.57-3.46Q69.57-4.10 70.21-4.10L70.21-4.10L70.21-4.10Q70.85-4.10 70.85-3.46L70.85-3.46L70.85-3.46Q70.85-2.82 70.21-2.82ZM75.65-1.60L75.65-1.60L75.65-1.60Q75.01-1.60 75.01-2.24L75.01-2.24L75.01-2.24Q75.01-2.88 75.65-2.88L75.65-2.88L75.65-2.88Q76.29-2.88 76.29-2.24L76.29-2.24L76.29-2.24Q76.29-1.60 75.65-1.60ZM57.02-30.91L57.02-30.91L57.02-30.91Q56.38-30.91 56.38-31.55L56.38-31.55L56.38-31.55Q56.38-32.19 57.02-32.19L57.02-32.19L57.02-32.19Q57.66-32.19 57.66-31.55L57.66-31.55L57.66-31.55Q57.66-30.91 57.02-30.91ZM52.54-28.48L52.54-28.48L52.54-28.48Q51.90-28.48 51.90-29.12L51.90-29.12L51.90-29.12Q51.90-29.76 52.54-29.76L52.54-29.76L52.54-29.76Q53.18-29.76 53.18-29.12L53.18-29.12L53.18-29.12Q53.18-28.48 52.54-28.48ZM77.25 0L77.25 0L77.25 0Q76.61 0 76.61-0.64L76.61-0.64L76.61-0.64Q76.61-1.28 77.25-1.28L77.25-1.28L77.25-1.28Q77.89-1.28 77.89-0.64L77.89-0.64L77.89-0.64Q77.89 0 77.25 0ZM49.92-8.96L49.92-8.96L49.92-8.96Q49.28-8.96 49.28-9.60L49.28-9.60L49.28-9.60Q49.28-10.24 49.92-10.24L49.92-10.24L49.92-10.24Q50.56-10.24 50.56-9.60L50.56-9.60L50.56-9.60Q50.56-8.96 49.92-8.96ZM67.01-17.41L67.01-17.41L67.01-17.41Q66.37-17.41 66.37-18.05L66.37-18.05L66.37-18.05Q66.37-18.69 67.01-18.69L67.01-18.69L67.01-18.69Q67.65-18.69 67.65-18.05L67.65-18.05L67.65-18.05Q67.65-17.41 67.01-17.41ZM64.51-17.66L64.51-17.66L64.51-17.66Q63.87-17.66 63.87-18.30L63.87-18.30L63.87-18.30Q63.87-18.94 64.51-18.94L64.51-18.94L64.51-18.94Q65.15-18.94 65.15-18.30L65.15-18.30L65.15-18.30Q65.15-17.66 64.51-17.66ZM61.76-17.73L61.76-17.73L61.76-17.73Q61.12-17.73 61.12-18.37L61.12-18.37L61.12-18.37Q61.12-19.01 61.76-19.01L61.76-19.01L61.76-19.01Q62.40-19.01 62.40-18.37L62.40-18.37L62.40-18.37Q62.40-17.73 61.76-17.73ZM54.14-15.68L54.14-15.68L54.14-15.68Q53.50-15.68 53.50-16.32L53.50-16.32L53.50-16.32Q53.50-16.96 54.14-16.96L54.14-16.96L54.14-16.96Q54.78-16.96 54.78-16.32L54.78-16.32L54.78-16.32Q54.78-15.68 54.14-15.68ZM55.42-0.58L55.42-0.58L55.42-0.58Q54.78-0.58 54.78-1.22L54.78-1.22L54.78-1.22Q54.78-1.86 55.42-1.86L55.42-1.86L55.42-1.86Q56.06-1.86 56.06-1.22L56.06-1.22L56.06-1.22Q56.06-0.58 55.42-0.58ZM57.79 0.19L57.79 0.19L57.79 0.19Q57.15 0.19 57.15-0.45L57.15-0.45L57.15-0.45Q57.15-1.09 57.79-1.09L57.79-1.09L57.79-1.09Q58.43-1.09 58.43-0.45L58.43-0.45L58.43-0.45Q58.43 0.19 57.79 0.19ZM60.35 0.38L60.35 0.38L60.35 0.38Q59.71 0.38 59.71-0.26L59.71-0.26L59.71-0.26Q59.71-0.90 60.35-0.90L60.35-0.90L60.35-0.90Q60.99-0.90 60.99-0.26L60.99-0.26L60.99-0.26Q60.99 0.38 60.35 0.38ZM63.23 0.13L63.23 0.13L63.23 0.13Q62.59 0.13 62.59-0.51L62.59-0.51L62.59-0.51Q62.59-1.15 63.23-1.15L63.23-1.15L63.23-1.15Q63.87-1.15 63.87-0.51L63.87-0.51L63.87-0.51Q63.87 0.13 63.23 0.13ZM65.79-0.51L65.79-0.51L65.79-0.51Q65.15-0.51 65.15-1.15L65.15-1.15L65.15-1.15Q65.15-1.79 65.79-1.79L65.79-1.79L65.79-1.79Q66.43-1.79 66.43-1.15L66.43-1.15L66.43-1.15Q66.43-0.51 65.79-0.51ZM86.78-14.78L86.78-14.78L86.78-14.78Q86.14-14.78 86.14-15.42L86.14-15.42L86.14-15.42Q86.14-16.06 86.78-16.06L86.78-16.06L86.78-16.06Q87.42-16.06 87.42-15.42L87.42-15.42L87.42-15.42Q87.42-14.78 86.78-14.78ZM86.78-12.22L86.78-12.22L86.78-12.22Q86.14-12.22 86.14-12.86L86.14-12.86L86.14-12.86Q86.14-13.50 86.78-13.50L86.78-13.50L86.78-13.50Q87.42-13.50 87.42-12.86L87.42-12.86L87.42-12.86Q87.42-12.22 86.78-12.22ZM86.78-9.66L86.78-9.66L86.78-9.66Q86.14-9.66 86.14-10.30L86.14-10.30L86.14-10.30Q86.14-10.94 86.78-10.94L86.78-10.94L86.78-10.94Q87.42-10.94 87.42-10.30L87.42-10.30L87.42-10.30Q87.42-9.66 86.78-9.66ZM86.78-7.23L86.78-7.23L86.78-7.23Q86.14-7.23 86.14-7.87L86.14-7.87L86.14-7.87Q86.14-8.51 86.78-8.51L86.78-8.51L86.78-8.51Q87.42-8.51 87.42-7.87L87.42-7.87L87.42-7.87Q87.42-7.23 86.78-7.23ZM86.78-4.54L86.78-4.54L86.78-4.54Q86.14-4.54 86.14-5.18L86.14-5.18L86.14-5.18Q86.14-5.82 86.78-5.82L86.78-5.82L86.78-5.82Q87.42-5.82 87.42-5.18L87.42-5.18L87.42-5.18Q87.42-4.54 86.78-4.54ZM86.78-2.24L86.78-2.24L86.78-2.24Q86.14-2.24 86.14-2.88L86.14-2.88L86.14-2.88Q86.14-3.52 86.78-3.52L86.78-3.52L86.78-3.52Q87.42-3.52 87.42-2.88L87.42-2.88L87.42-2.88Q87.42-2.24 86.78-2.24ZM86.78 0L86.78 0L86.78 0Q86.14 0 86.14-0.64L86.14-0.64L86.14-0.64Q86.14-1.28 86.78-1.28L86.78-1.28L86.78-1.28Q87.42-1.28 87.42-0.64L87.42-0.64L87.42-0.64Q87.42 0 86.78 0ZM86.78-32L86.78-32L86.78-32Q86.14-32 86.14-32.64L86.14-32.64L86.14-32.64Q86.14-33.28 86.78-33.28L86.78-33.28L86.78-33.28Q87.42-33.28 87.42-32.64L87.42-32.64L87.42-32.64Q87.42-32 86.78-32ZM86.78-24.77L86.78-24.77L86.78-24.77Q86.14-24.77 86.14-25.41L86.14-25.41L86.14-25.41Q86.14-26.05 86.78-26.05L86.78-26.05L86.78-26.05Q87.42-26.05 87.42-25.41L87.42-25.41L87.42-25.41Q87.42-24.77 86.78-24.77ZM86.78-22.40L86.78-22.40L86.78-22.40Q86.14-22.40 86.14-23.04L86.14-23.04L86.14-23.04Q86.14-23.68 86.78-23.68L86.78-23.68L86.78-23.68Q87.42-23.68 87.42-23.04L87.42-23.04L87.42-23.04Q87.42-22.40 86.78-22.40ZM86.78-19.97L86.78-19.97L86.78-19.97Q86.14-19.97 86.14-20.61L86.14-20.61L86.14-20.61Q86.14-21.25 86.78-21.25L86.78-21.25L86.78-21.25Q87.42-21.25 87.42-20.61L87.42-20.61L87.42-20.61Q87.42-19.97 86.78-19.97ZM86.78-17.41L86.78-17.41L86.78-17.41Q86.14-17.41 86.14-18.05L86.14-18.05L86.14-18.05Q86.14-18.69 86.78-18.69L86.78-18.69L86.78-18.69Q87.42-18.69 87.42-18.05L87.42-18.05L87.42-18.05Q87.42-17.41 86.78-17.41ZM86.78-27.07L86.78-27.07L86.78-27.07Q86.14-27.07 86.14-27.71L86.14-27.71L86.14-27.71Q86.14-28.35 86.78-28.35L86.78-28.35L86.78-28.35Q87.42-28.35 87.42-27.71L87.42-27.71L87.42-27.71Q87.42-27.07 86.78-27.07ZM86.78-29.63L86.78-29.63L86.78-29.63Q86.14-29.63 86.14-30.27L86.14-30.27L86.14-30.27Q86.14-30.91 86.78-30.91L86.78-30.91L86.78-30.91Q87.42-30.91 87.42-30.27L87.42-30.27L87.42-30.27Q87.42-29.63 86.78-29.63ZM109.95-14.78L109.95-14.78L109.95-14.78Q109.31-14.78 109.31-15.42L109.31-15.42L109.31-15.42Q109.31-16.06 109.95-16.06L109.95-16.06L109.95-16.06Q110.59-16.06 110.59-15.42L110.59-15.42L110.59-15.42Q110.59-14.78 109.95-14.78ZM109.95-12.10L109.95-12.10L109.95-12.10Q109.31-12.10 109.31-12.74L109.31-12.74L109.31-12.74Q109.31-13.38 109.95-13.38L109.95-13.38L109.95-13.38Q110.59-13.38 110.59-12.74L110.59-12.74L110.59-12.74Q110.59-12.10 109.95-12.10ZM109.95-9.66L109.95-9.66L109.95-9.66Q109.31-9.66 109.31-10.30L109.31-10.30L109.31-10.30Q109.31-10.94 109.95-10.94L109.95-10.94L109.95-10.94Q110.59-10.94 110.59-10.30L110.59-10.30L110.59-10.30Q110.59-9.66 109.95-9.66ZM109.95-7.04L109.95-7.04L109.95-7.04Q109.31-7.04 109.31-7.68L109.31-7.68L109.31-7.68Q109.31-8.32 109.95-8.32L109.95-8.32L109.95-8.32Q110.59-8.32 110.59-7.68L110.59-7.68L110.59-7.68Q110.59-7.04 109.95-7.04ZM109.95-4.67L109.95-4.67L109.95-4.67Q109.31-4.67 109.31-5.31L109.31-5.31L109.31-5.31Q109.31-5.95 109.95-5.95L109.95-5.95L109.95-5.95Q110.59-5.95 110.59-5.31L110.59-5.31L110.59-5.31Q110.59-4.67 109.95-4.67ZM109.95-2.24L109.95-2.24L109.95-2.24Q109.31-2.24 109.31-2.88L109.31-2.88L109.31-2.88Q109.31-3.52 109.95-3.52L109.95-3.52L109.95-3.52Q110.59-3.52 110.59-2.88L110.59-2.88L110.59-2.88Q110.59-2.24 109.95-2.24ZM109.95 0L109.95 0L109.95 0Q109.31 0 109.31-0.64L109.31-0.64L109.31-0.64Q109.31-1.28 109.95-1.28L109.95-1.28L109.95-1.28Q110.59-1.28 110.59-0.64L110.59-0.64L110.59-0.64Q110.59 0 109.95 0ZM98.75-32.13L98.75-32.13L98.75-32.13Q98.11-32.13 98.11-32.77L98.11-32.77L98.11-32.77Q98.11-33.41 98.75-33.41L98.75-33.41L98.75-33.41Q99.39-33.41 99.39-32.77L99.39-32.77L99.39-32.77Q99.39-32.13 98.75-32.13ZM101.25-32.19L101.25-32.19L101.25-32.19Q100.61-32.19 100.61-32.83L100.61-32.83L100.61-32.83Q100.61-33.47 101.25-33.47L101.25-33.47L101.25-33.47Q101.89-33.47 101.89-32.83L101.89-32.83L101.89-32.83Q101.89-32.19 101.25-32.19ZM103.81-31.62L103.81-31.62L103.81-31.62Q103.17-31.62 103.17-32.26L103.17-32.26L103.17-32.26Q103.17-32.90 103.81-32.90L103.81-32.90L103.81-32.90Q104.45-32.90 104.45-32.26L104.45-32.26L104.45-32.26Q104.45-31.62 103.81-31.62ZM106.30-30.27L106.30-30.27L106.30-30.27Q105.66-30.27 105.66-30.91L105.66-30.91L105.66-30.91Q105.66-31.55 106.30-31.55L106.30-31.55L106.30-31.55Q106.94-31.55 106.94-30.91L106.94-30.91L106.94-30.91Q106.94-30.27 106.30-30.27ZM107.90-28.35L107.90-28.35L107.90-28.35Q107.26-28.35 107.26-28.99L107.26-28.99L107.26-28.99Q107.26-29.63 107.90-29.63L107.90-29.63L107.90-29.63Q108.54-29.63 108.54-28.99L108.54-28.99L108.54-28.99Q108.54-28.35 107.90-28.35ZM109.31-23.94L109.31-23.94L109.31-23.94Q108.67-23.94 108.67-24.58L108.67-24.58L108.67-24.58Q108.67-25.22 109.31-25.22L109.31-25.22L109.31-25.22Q109.95-25.22 109.95-24.58L109.95-24.58L109.95-24.58Q109.95-23.94 109.31-23.94ZM110.27-21.82L110.27-21.82L110.27-21.82Q109.63-21.82 109.63-22.46L109.63-22.46L109.63-22.46Q109.63-23.10 110.27-23.10L110.27-23.10L110.27-23.10Q110.91-23.10 110.91-22.46L110.91-22.46L110.91-22.46Q110.91-21.82 110.27-21.82ZM108.80-26.18L108.80-26.18L108.80-26.18Q108.16-26.18 108.16-26.82L108.16-26.82L108.16-26.82Q108.16-27.46 108.80-27.46L108.80-27.46L108.80-27.46Q109.44-27.46 109.44-26.82L109.44-26.82L109.44-26.82Q109.44-26.18 108.80-26.18ZM109.95-19.39L109.95-19.39L109.95-19.39Q109.31-19.39 109.31-20.03L109.31-20.03L109.31-20.03Q109.31-20.67 109.95-20.67L109.95-20.67L109.95-20.67Q110.59-20.67 110.59-20.03L110.59-20.03L110.59-20.03Q110.59-19.39 109.95-19.39ZM96.19-31.36L96.19-31.36L96.19-31.36Q95.55-31.36 95.55-32L95.55-32L95.55-32Q95.55-32.64 96.19-32.64L96.19-32.64L96.19-32.64Q96.83-32.64 96.83-32L96.83-32L96.83-32Q96.83-31.36 96.19-31.36ZM109.95-17.15L109.95-17.15L109.95-17.15Q109.31-17.15 109.31-17.79L109.31-17.79L109.31-17.79Q109.31-18.43 109.95-18.43L109.95-18.43L109.95-18.43Q110.59-18.43 110.59-17.79L110.59-17.79L110.59-17.79Q110.59-17.15 109.95-17.15ZM93.89-30.14L93.89-30.14L93.89-30.14Q93.25-30.14 93.25-30.78L93.25-30.78L93.25-30.78Q93.25-31.42 93.89-31.42L93.89-31.42L93.89-31.42Q94.53-31.42 94.53-30.78L94.53-30.78L94.53-30.78Q94.53-30.14 93.89-30.14ZM92.03-28.67L92.03-28.67L92.03-28.67Q91.39-28.67 91.39-29.31L91.39-29.31L91.39-29.31Q91.39-29.95 92.03-29.95L92.03-29.95L92.03-29.95Q92.67-29.95 92.67-29.31L92.67-29.31L92.67-29.31Q92.67-28.67 92.03-28.67ZM90.11-26.37L90.11-26.37L90.11-26.37Q89.47-26.37 89.47-27.01L89.47-27.01L89.47-27.01Q89.47-27.65 90.11-27.65L90.11-27.65L90.11-27.65Q90.75-27.65 90.75-27.01L90.75-27.01L90.75-27.01Q90.75-26.37 90.11-26.37ZM88.77-23.87L88.77-23.87L88.77-23.87Q88.13-23.87 88.13-24.51L88.13-24.51L88.13-24.51Q88.13-25.15 88.77-25.15L88.77-25.15L88.77-25.15Q89.41-25.15 89.41-24.51L89.41-24.51L89.41-24.51Q89.41-23.87 88.77-23.87ZM132.99-14.78L132.99-14.78L132.99-14.78Q132.35-14.78 132.35-15.42L132.35-15.42L132.35-15.42Q132.35-16.06 132.99-16.06L132.99-16.06L132.99-16.06Q133.63-16.06 133.63-15.42L133.63-15.42L133.63-15.42Q133.63-14.78 132.99-14.78ZM132.99-12.22L132.99-12.22L132.99-12.22Q132.35-12.22 132.35-12.86L132.35-12.86L132.35-12.86Q132.35-13.50 132.99-13.50L132.99-13.50L132.99-13.50Q133.63-13.50 133.63-12.86L133.63-12.86L133.63-12.86Q133.63-12.22 132.99-12.22ZM132.99-9.66L132.99-9.66L132.99-9.66Q132.35-9.66 132.35-10.30L132.35-10.30L132.35-10.30Q132.35-10.94 132.99-10.94L132.99-10.94L132.99-10.94Q133.63-10.94 133.63-10.30L133.63-10.30L133.63-10.30Q133.63-9.66 132.99-9.66ZM132.99-7.23L132.99-7.23L132.99-7.23Q132.35-7.23 132.35-7.87L132.35-7.87L132.35-7.87Q132.35-8.51 132.99-8.51L132.99-8.51L132.99-8.51Q133.63-8.51 133.63-7.87L133.63-7.87L133.63-7.87Q133.63-7.23 132.99-7.23ZM132.99-4.54L132.99-4.54L132.99-4.54Q132.35-4.54 132.35-5.18L132.35-5.18L132.35-5.18Q132.35-5.82 132.99-5.82L132.99-5.82L132.99-5.82Q133.63-5.82 133.63-5.18L133.63-5.18L133.63-5.18Q133.63-4.54 132.99-4.54ZM132.99-2.24L132.99-2.24L132.99-2.24Q132.35-2.24 132.35-2.88L132.35-2.88L132.35-2.88Q132.35-3.52 132.99-3.52L132.99-3.52L132.99-3.52Q133.63-3.52 133.63-2.88L133.63-2.88L133.63-2.88Q133.63-2.24 132.99-2.24ZM132.99 0L132.99 0L132.99 0Q132.35 0 132.35-0.64L132.35-0.64L132.35-0.64Q132.35-1.28 132.99-1.28L132.99-1.28L132.99-1.28Q133.63-1.28 133.63-0.64L133.63-0.64L133.63-0.64Q133.63 0 132.99 0ZM121.79-32.13L121.79-32.13L121.79-32.13Q121.15-32.13 121.15-32.77L121.15-32.77L121.15-32.77Q121.15-33.41 121.79-33.41L121.79-33.41L121.79-33.41Q122.43-33.41 122.43-32.77L122.43-32.77L122.43-32.77Q122.43-32.13 121.79-32.13ZM124.29-32.19L124.29-32.19L124.29-32.19Q123.65-32.19 123.65-32.83L123.65-32.83L123.65-32.83Q123.65-33.47 124.29-33.47L124.29-33.47L124.29-33.47Q124.93-33.47 124.93-32.83L124.93-32.83L124.93-32.83Q124.93-32.19 124.29-32.19ZM126.85-31.62L126.85-31.62L126.85-31.62Q126.21-31.62 126.21-32.26L126.21-32.26L126.21-32.26Q126.21-32.90 126.85-32.90L126.85-32.90L126.85-32.90Q127.49-32.90 127.49-32.26L127.49-32.26L127.49-32.26Q127.49-31.62 126.85-31.62ZM129.34-30.27L129.34-30.27L129.34-30.27Q128.70-30.27 128.70-30.91L128.70-30.91L128.70-30.91Q128.70-31.55 129.34-31.55L129.34-31.55L129.34-31.55Q129.98-31.55 129.98-30.91L129.98-30.91L129.98-30.91Q129.98-30.27 129.34-30.27ZM130.94-28.35L130.94-28.35L130.94-28.35Q130.30-28.35 130.30-28.99L130.30-28.99L130.30-28.99Q130.30-29.63 130.94-29.63L130.94-29.63L130.94-29.63Q131.58-29.63 131.58-28.99L131.58-28.99L131.58-28.99Q131.58-28.35 130.94-28.35ZM132.35-23.94L132.35-23.94L132.35-23.94Q131.71-23.94 131.71-24.58L131.71-24.58L131.71-24.58Q131.71-25.22 132.35-25.22L132.35-25.22L132.35-25.22Q132.99-25.22 132.99-24.58L132.99-24.58L132.99-24.58Q132.99-23.94 132.35-23.94ZM132.67-21.57L132.67-21.57L132.67-21.57Q132.03-21.57 132.03-22.21L132.03-22.21L132.03-22.21Q132.03-22.85 132.67-22.85L132.67-22.85L132.67-22.85Q133.31-22.85 133.31-22.21L133.31-22.21L133.31-22.21Q133.31-21.57 132.67-21.57ZM131.84-26.18L131.84-26.18L131.84-26.18Q131.20-26.18 131.20-26.82L131.20-26.82L131.20-26.82Q131.20-27.46 131.84-27.46L131.84-27.46L131.84-27.46Q132.48-27.46 132.48-26.82L132.48-26.82L132.48-26.82Q132.48-26.18 131.84-26.18ZM132.99-19.14L132.99-19.14L132.99-19.14Q132.35-19.14 132.35-19.78L132.35-19.78L132.35-19.78Q132.35-20.42 132.99-20.42L132.99-20.42L132.99-20.42Q133.63-20.42 133.63-19.78L133.63-19.78L133.63-19.78Q133.63-19.14 132.99-19.14ZM119.23-31.36L119.23-31.36L119.23-31.36Q118.59-31.36 118.59-32L118.59-32L118.59-32Q118.59-32.64 119.23-32.64L119.23-32.64L119.23-32.64Q119.87-32.64 119.87-32L119.87-32L119.87-32Q119.87-31.36 119.23-31.36ZM132.99-16.96L132.99-16.96L132.99-16.96Q132.35-16.96 132.35-17.60L132.35-17.60L132.35-17.60Q132.35-18.24 132.99-18.24L132.99-18.24L132.99-18.24Q133.63-18.24 133.63-17.60L133.63-17.60L133.63-17.60Q133.63-16.96 132.99-16.96ZM116.93-30.14L116.93-30.14L116.93-30.14Q116.29-30.14 116.29-30.78L116.29-30.78L116.29-30.78Q116.29-31.42 116.93-31.42L116.93-31.42L116.93-31.42Q117.57-31.42 117.57-30.78L117.57-30.78L117.57-30.78Q117.57-30.14 116.93-30.14ZM115.07-28.67L115.07-28.67L115.07-28.67Q114.43-28.67 114.43-29.31L114.43-29.31L114.43-29.31Q114.43-29.95 115.07-29.95L115.07-29.95L115.07-29.95Q115.71-29.95 115.71-29.31L115.71-29.31L115.71-29.31Q115.71-28.67 115.07-28.67ZM113.15-26.37L113.15-26.37L113.15-26.37Q112.51-26.37 112.51-27.01L112.51-27.01L112.51-27.01Q112.51-27.65 113.15-27.65L113.15-27.65L113.15-27.65Q113.79-27.65 113.79-27.01L113.79-27.01L113.79-27.01Q113.79-26.37 113.15-26.37ZM111.81-23.87L111.81-23.87L111.81-23.87Q111.17-23.87 111.17-24.51L111.17-24.51L111.17-24.51Q111.17-25.15 111.81-25.15L111.81-25.15L111.81-25.15Q112.45-25.15 112.45-24.51L112.45-24.51L112.45-24.51Q112.45-23.87 111.81-23.87ZM157.76-32.26L157.76-32.26L157.76-32.26Q157.12-32.26 157.12-32.90L157.12-32.90L157.12-32.90Q157.12-33.54 157.76-33.54L157.76-33.54L157.76-33.54Q158.40-33.54 158.40-32.90L158.40-32.90L158.40-32.90Q158.40-32.26 157.76-32.26ZM160.70-31.81L160.70-31.81L160.70-31.81Q160.06-31.81 160.06-32.45L160.06-32.45L160.06-32.45Q160.06-33.09 160.70-33.09L160.70-33.09L160.70-33.09Q161.34-33.09 161.34-32.45L161.34-32.45L161.34-32.45Q161.34-31.81 160.70-31.81ZM163.26-30.98L163.26-30.98L163.26-30.98Q162.62-30.98 162.62-31.62L162.62-31.62L162.62-31.62Q162.62-32.26 163.26-32.26L163.26-32.26L163.26-32.26Q163.90-32.26 163.90-31.62L163.90-31.62L163.90-31.62Q163.90-30.98 163.26-30.98ZM165.76-29.50L165.76-29.50L165.76-29.50Q165.12-29.50 165.12-30.14L165.12-30.14L165.12-30.14Q165.12-30.78 165.76-30.78L165.76-30.78L165.76-30.78Q166.40-30.78 166.40-30.14L166.40-30.14L166.40-30.14Q166.40-29.50 165.76-29.50ZM167.81-27.71L167.81-27.71L167.81-27.71Q167.17-27.71 167.17-28.35L167.17-28.35L167.17-28.35Q167.17-28.99 167.81-28.99L167.81-28.99L167.81-28.99Q168.45-28.99 168.45-28.35L168.45-28.35L168.45-28.35Q168.45-27.71 167.81-27.71ZM170.94-23.30L170.94-23.30L170.94-23.30Q170.30-23.30 170.30-23.94L170.30-23.94L170.30-23.94Q170.30-24.58 170.94-24.58L170.94-24.58L170.94-24.58Q171.58-24.58 171.58-23.94L171.58-23.94L171.58-23.94Q171.58-23.30 170.94-23.30ZM171.90-20.93L171.90-20.93L171.90-20.93Q171.26-20.93 171.26-21.57L171.26-21.57L171.26-21.57Q171.26-22.21 171.90-22.21L171.90-22.21L171.90-22.21Q172.54-22.21 172.54-21.57L172.54-21.57L172.54-21.57Q172.54-20.93 171.90-20.93ZM172.67-16L172.67-16L172.67-16Q172.03-16 172.03-16.64L172.03-16.64L172.03-16.64Q172.03-17.28 172.67-17.28L172.67-17.28L172.67-17.28Q173.31-17.28 173.31-16.64L173.31-16.64L173.31-16.64Q173.31-16 172.67-16ZM169.60-25.54L169.60-25.54L169.60-25.54Q168.96-25.54 168.96-26.18L168.96-26.18L168.96-26.18Q168.96-26.82 169.60-26.82L169.60-26.82L169.60-26.82Q170.24-26.82 170.24-26.18L170.24-26.18L170.24-26.18Q170.24-25.54 169.60-25.54ZM172.35-18.50L172.35-18.50L172.35-18.50Q171.71-18.50 171.71-19.14L171.71-19.14L171.71-19.14Q171.71-19.78 172.35-19.78L172.35-19.78L172.35-19.78Q172.99-19.78 172.99-19.14L172.99-19.14L172.99-19.14Q172.99-18.50 172.35-18.50ZM154.75-31.81L154.75-31.81L154.75-31.81Q154.11-31.81 154.11-32.45L154.11-32.45L154.11-32.45Q154.11-33.09 154.75-33.09L154.75-33.09L154.75-33.09Q155.39-33.09 155.39-32.45L155.39-32.45L155.39-32.45Q155.39-31.81 154.75-31.81ZM152.19-30.98L152.19-30.98L152.19-30.98Q151.55-30.98 151.55-31.62L151.55-31.62L151.55-31.62Q151.55-32.26 152.19-32.26L152.19-32.26L152.19-32.26Q152.83-32.26 152.83-31.62L152.83-31.62L152.83-31.62Q152.83-30.98 152.19-30.98ZM149.70-29.50L149.70-29.50L149.70-29.50Q149.06-29.50 149.06-30.14L149.06-30.14L149.06-30.14Q149.06-30.78 149.70-30.78L149.70-30.78L149.70-30.78Q150.34-30.78 150.34-30.14L150.34-30.14L150.34-30.14Q150.34-29.50 149.70-29.50ZM147.65-27.71L147.65-27.71L147.65-27.71Q147.01-27.71 147.01-28.35L147.01-28.35L147.01-28.35Q147.01-28.99 147.65-28.99L147.65-28.99L147.65-28.99Q148.29-28.99 148.29-28.35L148.29-28.35L148.29-28.35Q148.29-27.71 147.65-27.71ZM144.51-23.30L144.51-23.30L144.51-23.30Q143.87-23.30 143.87-23.94L143.87-23.94L143.87-23.94Q143.87-24.58 144.51-24.58L144.51-24.58L144.51-24.58Q145.15-24.58 145.15-23.94L145.15-23.94L145.15-23.94Q145.15-23.30 144.51-23.30ZM143.55-20.93L143.55-20.93L143.55-20.93Q142.91-20.93 142.91-21.57L142.91-21.57L142.91-21.57Q142.91-22.21 143.55-22.21L143.55-22.21L143.55-22.21Q144.19-22.21 144.19-21.57L144.19-21.57L144.19-21.57Q144.19-20.93 143.55-20.93ZM142.78-16L142.78-16L142.78-16Q142.14-16 142.14-16.64L142.14-16.64L142.14-16.64Q142.14-17.28 142.78-17.28L142.78-17.28L142.78-17.28Q143.42-17.28 143.42-16.64L143.42-16.64L143.42-16.64Q143.42-16 142.78-16ZM145.86-25.54L145.86-25.54L145.86-25.54Q145.22-25.54 145.22-26.18L145.22-26.18L145.22-26.18Q145.22-26.82 145.86-26.82L145.86-26.82L145.86-26.82Q146.50-26.82 146.50-26.18L146.50-26.18L146.50-26.18Q146.50-25.54 145.86-25.54ZM143.04-18.56L143.04-18.56L143.04-18.56Q142.40-18.56 142.40-19.20L142.40-19.20L142.40-19.20Q142.40-19.84 143.04-19.84L143.04-19.84L143.04-19.84Q143.68-19.84 143.68-19.20L143.68-19.20L143.68-19.20Q143.68-18.56 143.04-18.56ZM157.76-0.96L157.76-0.96L157.76-0.96Q158.40-0.96 158.40-0.32L158.40-0.32L158.40-0.32Q158.40 0.32 157.76 0.32L157.76 0.32L157.76 0.32Q157.12 0.32 157.12-0.32L157.12-0.32L157.12-0.32Q157.12-0.96 157.76-0.96ZM160.77-1.28L160.77-1.28L160.77-1.28Q161.41-1.28 161.41-0.64L161.41-0.64L161.41-0.64Q161.41 0 160.77 0L160.77 0L160.77 0Q160.13 0 160.13-0.64L160.13-0.64L160.13-0.64Q160.13-1.28 160.77-1.28ZM163.58-2.18L163.58-2.18L163.58-2.18Q164.22-2.18 164.22-1.54L164.22-1.54L164.22-1.54Q164.22-0.90 163.58-0.90L163.58-0.90L163.58-0.90Q162.94-0.90 162.94-1.54L162.94-1.54L162.94-1.54Q162.94-2.18 163.58-2.18ZM166.02-3.52L166.02-3.52L166.02-3.52Q166.66-3.52 166.66-2.88L166.66-2.88L166.66-2.88Q166.66-2.24 166.02-2.24L166.02-2.24L166.02-2.24Q165.38-2.24 165.38-2.88L165.38-2.88L165.38-2.88Q165.38-3.52 166.02-3.52ZM168.06-5.31L168.06-5.31L168.06-5.31Q168.70-5.31 168.70-4.67L168.70-4.67L168.70-4.67Q168.70-4.03 168.06-4.03L168.06-4.03L168.06-4.03Q167.42-4.03 167.42-4.67L167.42-4.67L167.42-4.67Q167.42-5.31 168.06-5.31ZM169.86-7.49L169.86-7.49L169.86-7.49Q170.50-7.49 170.50-6.85L170.50-6.85L170.50-6.85Q170.50-6.21 169.86-6.21L169.86-6.21L169.86-6.21Q169.22-6.21 169.22-6.85L169.22-6.85L169.22-6.85Q169.22-7.49 169.86-7.49ZM154.69-1.41L154.69-1.41L154.69-1.41Q155.33-1.41 155.33-0.77L155.33-0.77L155.33-0.77Q155.33-0.13 154.69-0.13L154.69-0.13L154.69-0.13Q154.05-0.13 154.05-0.77L154.05-0.77L154.05-0.77Q154.05-1.41 154.69-1.41ZM152.19-2.37L152.19-2.37L152.19-2.37Q152.83-2.37 152.83-1.73L152.83-1.73L152.83-1.73Q152.83-1.09 152.19-1.09L152.19-1.09L152.19-1.09Q151.55-1.09 151.55-1.73L151.55-1.73L151.55-1.73Q151.55-2.37 152.19-2.37ZM149.70-3.84L149.70-3.84L149.70-3.84Q150.34-3.84 150.34-3.20L150.34-3.20L150.34-3.20Q150.34-2.56 149.70-2.56L149.70-2.56L149.70-2.56Q149.06-2.56 149.06-3.20L149.06-3.20L149.06-3.20Q149.06-3.84 149.70-3.84ZM147.65-5.63L147.65-5.63L147.65-5.63Q148.29-5.63 148.29-4.99L148.29-4.99L148.29-4.99Q148.29-4.35 147.65-4.35L147.65-4.35L147.65-4.35Q147.01-4.35 147.01-4.99L147.01-4.99L147.01-4.99Q147.01-5.63 147.65-5.63ZM144.51-10.05L144.51-10.05L144.51-10.05Q145.15-10.05 145.15-9.41L145.15-9.41L145.15-9.41Q145.15-8.77 144.51-8.77L144.51-8.77L144.51-8.77Q143.87-8.77 143.87-9.41L143.87-9.41L143.87-9.41Q143.87-10.05 144.51-10.05ZM143.55-12.42L143.55-12.42L143.55-12.42Q144.19-12.42 144.19-11.78L144.19-11.78L144.19-11.78Q144.19-11.14 143.55-11.14L143.55-11.14L143.55-11.14Q142.91-11.14 142.91-11.78L142.91-11.78L142.91-11.78Q142.91-12.42 143.55-12.42ZM145.86-7.81L145.86-7.81L145.86-7.81Q146.50-7.81 146.50-7.17L146.50-7.17L146.50-7.17Q146.50-6.53 145.86-6.53L145.86-6.53L145.86-6.53Q145.22-6.53 145.22-7.17L145.22-7.17L145.22-7.17Q145.22-7.81 145.86-7.81ZM143.04-14.78L143.04-14.78L143.04-14.78Q143.68-14.78 143.68-14.14L143.68-14.14L143.68-14.14Q143.68-13.50 143.04-13.50L143.04-13.50L143.04-13.50Q142.40-13.50 142.40-14.14L142.40-14.14L142.40-14.14Q142.40-14.78 143.04-14.78ZM170.18-16L170.18-16L170.18-16Q169.54-16 169.54-16.64L169.54-16.64L169.54-16.64Q169.54-17.28 170.18-17.28L170.18-17.28L170.18-17.28Q170.82-17.28 170.82-16.64L170.82-16.64L170.82-16.64Q170.82-16 170.18-16ZM167.30-16L167.30-16L167.30-16Q166.66-16 166.66-16.64L166.66-16.64L166.66-16.64Q166.66-17.28 167.30-17.28L167.30-17.28L167.30-17.28Q167.94-17.28 167.94-16.64L167.94-16.64L167.94-16.64Q167.94-16 167.30-16ZM164.67-16L164.67-16L164.67-16Q164.03-16 164.03-16.64L164.03-16.64L164.03-16.64Q164.03-17.28 164.67-17.28L164.67-17.28L164.67-17.28Q165.31-17.28 165.31-16.64L165.31-16.64L165.31-16.64Q165.31-16 164.67-16ZM162.11-16L162.11-16L162.11-16Q161.47-16 161.47-16.64L161.47-16.64L161.47-16.64Q161.47-17.28 162.11-17.28L162.11-17.28L162.11-17.28Q162.75-17.28 162.75-16.64L162.75-16.64L162.75-16.64Q162.75-16 162.11-16ZM159.42-16L159.42-16L159.42-16Q158.78-16 158.78-16.64L158.78-16.64L158.78-16.64Q158.78-17.28 159.42-17.28L159.42-17.28L159.42-17.28Q160.06-17.28 160.06-16.64L160.06-16.64L160.06-16.64Q160.06-16 159.42-16ZM156.67-16L156.67-16L156.67-16Q156.03-16 156.03-16.64L156.03-16.64L156.03-16.64Q156.03-17.28 156.67-17.28L156.67-17.28L156.67-17.28Q157.31-17.28 157.31-16.64L157.31-16.64L157.31-16.64Q157.31-16 156.67-16ZM153.73-16L153.73-16L153.73-16Q153.09-16 153.09-16.64L153.09-16.64L153.09-16.64Q153.09-17.28 153.73-17.28L153.73-17.28L153.73-17.28Q154.37-17.28 154.37-16.64L154.37-16.64L154.37-16.64Q154.37-16 153.73-16ZM150.85-16L150.85-16L150.85-16Q150.21-16 150.21-16.64L150.21-16.64L150.21-16.64Q150.21-17.28 150.85-17.28L150.85-17.28L150.85-17.28Q151.49-17.28 151.49-16.64L151.49-16.64L151.49-16.64Q151.49-16 150.85-16ZM148.03-16L148.03-16L148.03-16Q147.39-16 147.39-16.64L147.39-16.64L147.39-16.64Q147.39-17.28 148.03-17.28L148.03-17.28L148.03-17.28Q148.67-17.28 148.67-16.64L148.67-16.64L148.67-16.64Q148.67-16 148.03-16ZM145.41-16L145.41-16L145.41-16Q144.77-16 144.77-16.64L144.77-16.64L144.77-16.64Q144.77-17.28 145.41-17.28L145.41-17.28L145.41-17.28Q146.05-17.28 146.05-16.64L146.05-16.64L146.05-16.64Q146.05-16 145.41-16ZM201.86-44.03L201.86-44.03L201.86-44.03Q201.22-44.03 201.22-44.67L201.22-44.67L201.22-44.67Q201.22-45.31 201.86-45.31L201.86-45.31L201.86-45.31Q202.50-45.31 202.50-44.67L202.50-44.67L202.50-44.67Q202.50-44.03 201.86-44.03ZM199.23-44.03L199.23-44.03L199.23-44.03Q198.59-44.03 198.59-44.67L198.59-44.67L198.59-44.67Q198.59-45.31 199.23-45.31L199.23-45.31L199.23-45.31Q199.87-45.31 199.87-44.67L199.87-44.67L199.87-44.67Q199.87-44.03 199.23-44.03ZM196.67-43.65L196.67-43.65L196.67-43.65Q196.03-43.65 196.03-44.29L196.03-44.29L196.03-44.29Q196.03-44.93 196.67-44.93L196.67-44.93L196.67-44.93Q197.31-44.93 197.31-44.29L197.31-44.29L197.31-44.29Q197.31-43.65 196.67-43.65ZM194.11-42.94L194.11-42.94L194.11-42.94Q193.47-42.94 193.47-43.58L193.47-43.58L193.47-43.58Q193.47-44.22 194.11-44.22L194.11-44.22L194.11-44.22Q194.75-44.22 194.75-43.58L194.75-43.58L194.75-43.58Q194.75-42.94 194.11-42.94ZM191.68-41.92L191.68-41.92L191.68-41.92Q191.04-41.92 191.04-42.56L191.04-42.56L191.04-42.56Q191.04-43.20 191.68-43.20L191.68-43.20L191.68-43.20Q192.32-43.20 192.32-42.56L192.32-42.56L192.32-42.56Q192.32-41.92 191.68-41.92ZM189.31-40.45L189.31-40.45L189.31-40.45Q188.67-40.45 188.67-41.09L188.67-41.09L188.67-41.09Q188.67-41.73 189.31-41.73L189.31-41.73L189.31-41.73Q189.95-41.73 189.95-41.09L189.95-41.09L189.95-41.09Q189.95-40.45 189.31-40.45ZM187.20-38.66L187.20-38.66L187.20-38.66Q186.56-38.66 186.56-39.30L186.56-39.30L186.56-39.30Q186.56-39.94 187.20-39.94L187.20-39.94L187.20-39.94Q187.84-39.94 187.84-39.30L187.84-39.30L187.84-39.30Q187.84-38.66 187.20-38.66ZM185.34-36.61L185.34-36.61L185.34-36.61Q184.70-36.61 184.70-37.25L184.70-37.25L184.70-37.25Q184.70-37.89 185.34-37.89L185.34-37.89L185.34-37.89Q185.98-37.89 185.98-37.25L185.98-37.25L185.98-37.25Q185.98-36.61 185.34-36.61ZM183.81-34.43L183.81-34.43L183.81-34.43Q183.17-34.43 183.17-35.07L183.17-35.07L183.17-35.07Q183.17-35.71 183.81-35.71L183.81-35.71L183.81-35.71Q184.45-35.71 184.45-35.07L184.45-35.07L184.45-35.07Q184.45-34.43 183.81-34.43ZM182.53-32.13L182.53-32.13L182.53-32.13Q181.89-32.13 181.89-32.77L181.89-32.77L181.89-32.77Q181.89-33.41 182.53-33.41L182.53-33.41L182.53-33.41Q183.17-33.41 183.17-32.77L183.17-32.77L183.17-32.77Q183.17-32.13 182.53-32.13ZM181.57-29.57L181.57-29.57L181.57-29.57Q180.93-29.57 180.93-30.21L180.93-30.21L180.93-30.21Q180.93-30.85 181.57-30.85L181.57-30.85L181.57-30.85Q182.21-30.85 182.21-30.21L182.21-30.21L182.21-30.21Q182.21-29.57 181.57-29.57ZM180.86-27.01L180.86-27.01L180.86-27.01Q180.22-27.01 180.22-27.65L180.22-27.65L180.22-27.65Q180.22-28.29 180.86-28.29L180.86-28.29L180.86-28.29Q181.50-28.29 181.50-27.65L181.50-27.65L181.50-27.65Q181.50-27.01 180.86-27.01ZM180.48-24.38L180.48-24.38L180.48-24.38Q179.84-24.38 179.84-25.02L179.84-25.02L179.84-25.02Q179.84-25.66 180.48-25.66L180.48-25.66L180.48-25.66Q181.12-25.66 181.12-25.02L181.12-25.02L181.12-25.02Q181.12-24.38 180.48-24.38ZM180.42-21.63L180.42-21.63L180.42-21.63Q179.78-21.63 179.78-22.27L179.78-22.27L179.78-22.27Q179.78-22.91 180.42-22.91L180.42-22.91L180.42-22.91Q181.06-22.91 181.06-22.27L181.06-22.27L181.06-22.27Q181.06-21.63 180.42-21.63ZM180.61-18.94L180.61-18.94L180.61-18.94Q179.97-18.94 179.97-19.58L179.97-19.58L179.97-19.58Q179.97-20.22 180.61-20.22L180.61-20.22L180.61-20.22Q181.25-20.22 181.25-19.58L181.25-19.58L181.25-19.58Q181.25-18.94 180.61-18.94ZM181.12-16.19L181.12-16.19L181.12-16.19Q180.48-16.19 180.48-16.83L180.48-16.83L180.48-16.83Q180.48-17.47 181.12-17.47L181.12-17.47L181.12-17.47Q181.76-17.47 181.76-16.83L181.76-16.83L181.76-16.83Q181.76-16.19 181.12-16.19ZM182.02-13.63L182.02-13.63L182.02-13.63Q181.38-13.63 181.38-14.27L181.38-14.27L181.38-14.27Q181.38-14.91 182.02-14.91L182.02-14.91L182.02-14.91Q182.66-14.91 182.66-14.27L182.66-14.27L182.66-14.27Q182.66-13.63 182.02-13.63ZM183.10-11.26L183.10-11.26L183.10-11.26Q182.46-11.26 182.46-11.90L182.46-11.90L182.46-11.90Q182.46-12.54 183.10-12.54L183.10-12.54L183.10-12.54Q183.74-12.54 183.74-11.90L183.74-11.90L183.74-11.90Q183.74-11.26 183.10-11.26ZM184.38-9.02L184.38-9.02L184.38-9.02Q183.74-9.02 183.74-9.66L183.74-9.66L183.74-9.66Q183.74-10.30 184.38-10.30L184.38-10.30L184.38-10.30Q185.02-10.30 185.02-9.66L185.02-9.66L185.02-9.66Q185.02-9.02 184.38-9.02ZM186.05-6.98L186.05-6.98L186.05-6.98Q185.41-6.98 185.41-7.62L185.41-7.62L185.41-7.62Q185.41-8.26 186.05-8.26L186.05-8.26L186.05-8.26Q186.69-8.26 186.69-7.62L186.69-7.62L186.69-7.62Q186.69-6.98 186.05-6.98ZM187.90-5.12L187.90-5.12L187.90-5.12Q187.26-5.12 187.26-5.76L187.26-5.76L187.26-5.76Q187.26-6.40 187.90-6.40L187.90-6.40L187.90-6.40Q188.54-6.40 188.54-5.76L188.54-5.76L188.54-5.76Q188.54-5.12 187.90-5.12ZM189.89-3.52L189.89-3.52L189.89-3.52Q189.25-3.52 189.25-4.16L189.25-4.16L189.25-4.16Q189.25-4.80 189.89-4.80L189.89-4.80L189.89-4.80Q190.53-4.80 190.53-4.16L190.53-4.16L190.53-4.16Q190.53-3.52 189.89-3.52ZM192.06-2.18L192.06-2.18L192.06-2.18Q191.42-2.18 191.42-2.82L191.42-2.82L191.42-2.82Q191.42-3.46 192.06-3.46L192.06-3.46L192.06-3.46Q192.70-3.46 192.70-2.82L192.70-2.82L192.70-2.82Q192.70-2.18 192.06-2.18ZM194.56-1.02L194.56-1.02L194.56-1.02Q193.92-1.02 193.92-1.66L193.92-1.66L193.92-1.66Q193.92-2.30 194.56-2.30L194.56-2.30L194.56-2.30Q195.20-2.30 195.20-1.66L195.20-1.66L195.20-1.66Q195.20-1.02 194.56-1.02ZM196.86-0.32L196.86-0.32L196.86-0.32Q196.22-0.32 196.22-0.96L196.22-0.96L196.22-0.96Q196.22-1.60 196.86-1.60L196.86-1.60L196.86-1.60Q197.50-1.60 197.50-0.96L197.50-0.96L197.50-0.96Q197.50-0.32 196.86-0.32ZM199.30 0L199.30 0L199.30 0Q198.66 0 198.66-0.64L198.66-0.64L198.66-0.64Q198.66-1.28 199.30-1.28L199.30-1.28L199.30-1.28Q199.94-1.28 199.94-0.64L199.94-0.64L199.94-0.64Q199.94 0 199.30 0ZM201.73 0L201.73 0L201.73 0Q201.09 0 201.09-0.64L201.09-0.64L201.09-0.64Q201.09-1.28 201.73-1.28L201.73-1.28L201.73-1.28Q202.37-1.28 202.37-0.64L202.37-0.64L202.37-0.64Q202.37 0 201.73 0ZM204.16-0.32L204.16-0.32L204.16-0.32Q203.52-0.32 203.52-0.96L203.52-0.96L203.52-0.96Q203.52-1.60 204.16-1.60L204.16-1.60L204.16-1.60Q204.80-1.60 204.80-0.96L204.80-0.96L204.80-0.96Q204.80-0.32 204.16-0.32ZM206.72-1.02L206.72-1.02L206.72-1.02Q206.08-1.02 206.08-1.66L206.08-1.66L206.08-1.66Q206.08-2.30 206.72-2.30L206.72-2.30L206.72-2.30Q207.36-2.30 207.36-1.66L207.36-1.66L207.36-1.66Q207.36-1.02 206.72-1.02ZM209.15-2.05L209.15-2.05L209.15-2.05Q208.51-2.05 208.51-2.69L208.51-2.69L208.51-2.69Q208.51-3.33 209.15-3.33L209.15-3.33L209.15-3.33Q209.79-3.33 209.79-2.69L209.79-2.69L209.79-2.69Q209.79-2.05 209.15-2.05ZM211.33-3.39L211.33-3.39L211.33-3.39Q210.69-3.39 210.69-4.03L210.69-4.03L210.69-4.03Q210.69-4.67 211.33-4.67L211.33-4.67L211.33-4.67Q211.97-4.67 211.97-4.03L211.97-4.03L211.97-4.03Q211.97-3.39 211.33-3.39ZM213.31-4.99L213.31-4.99L213.31-4.99Q212.67-4.99 212.67-5.63L212.67-5.63L212.67-5.63Q212.67-6.27 213.31-6.27L213.31-6.27L213.31-6.27Q213.95-6.27 213.95-5.63L213.95-5.63L213.95-5.63Q213.95-4.99 213.31-4.99ZM215.17-6.85L215.17-6.85L215.17-6.85Q214.53-6.85 214.53-7.49L214.53-7.49L214.53-7.49Q214.53-8.13 215.17-8.13L215.17-8.13L215.17-8.13Q215.81-8.13 215.81-7.49L215.81-7.49L215.81-7.49Q215.81-6.85 215.17-6.85ZM216.83-8.90L216.83-8.90L216.83-8.90Q216.19-8.90 216.19-9.54L216.19-9.54L216.19-9.54Q216.19-10.18 216.83-10.18L216.83-10.18L216.83-10.18Q217.47-10.18 217.47-9.54L217.47-9.54L217.47-9.54Q217.47-8.90 216.83-8.90ZM218.11-11.14L218.11-11.14L218.11-11.14Q217.47-11.14 217.47-11.78L217.47-11.78L217.47-11.78Q217.47-12.42 218.11-12.42L218.11-12.42L218.11-12.42Q218.75-12.42 218.75-11.78L218.75-11.78L218.75-11.78Q218.75-11.14 218.11-11.14ZM219.20-13.50L219.20-13.50L219.20-13.50Q218.56-13.50 218.56-14.14L218.56-14.14L218.56-14.14Q218.56-14.78 219.20-14.78L219.20-14.78L219.20-14.78Q219.84-14.78 219.84-14.14L219.84-14.14L219.84-14.14Q219.84-13.50 219.20-13.50ZM220.10-16.06L220.10-16.06L220.10-16.06Q219.46-16.06 219.46-16.70L219.46-16.70L219.46-16.70Q219.46-17.34 220.10-17.34L220.10-17.34L220.10-17.34Q220.74-17.34 220.74-16.70L220.74-16.70L220.74-16.70Q220.74-16.06 220.10-16.06ZM220.61-18.82L220.61-18.82L220.61-18.82Q219.97-18.82 219.97-19.46L219.97-19.46L219.97-19.46Q219.97-20.10 220.61-20.10L220.61-20.10L220.61-20.10Q221.25-20.10 221.25-19.46L221.25-19.46L221.25-19.46Q221.25-18.82 220.61-18.82ZM220.80-21.50L220.80-21.50L220.80-21.50Q220.16-21.50 220.16-22.14L220.16-22.14L220.16-22.14Q220.16-22.78 220.80-22.78L220.80-22.78L220.80-22.78Q221.44-22.78 221.44-22.14L221.44-22.14L221.44-22.14Q221.44-21.50 220.80-21.50ZM220.74-24.26L220.74-24.26L220.74-24.26Q220.10-24.26 220.10-24.90L220.10-24.90L220.10-24.90Q220.10-25.54 220.74-25.54L220.74-25.54L220.74-25.54Q221.38-25.54 221.38-24.90L221.38-24.90L221.38-24.90Q221.38-24.26 220.74-24.26ZM220.35-26.88L220.35-26.88L220.35-26.88Q219.71-26.88 219.71-27.52L219.71-27.52L219.71-27.52Q219.71-28.16 220.35-28.16L220.35-28.16L220.35-28.16Q220.99-28.16 220.99-27.52L220.99-27.52L220.99-27.52Q220.99-26.88 220.35-26.88ZM219.65-29.44L219.65-29.44L219.65-29.44Q219.01-29.44 219.01-30.08L219.01-30.08L219.01-30.08Q219.01-30.72 219.65-30.72L219.65-30.72L219.65-30.72Q220.29-30.72 220.29-30.08L220.29-30.08L220.29-30.08Q220.29-29.44 219.65-29.44ZM218.69-32L218.69-32L218.69-32Q218.05-32 218.05-32.64L218.05-32.64L218.05-32.64Q218.05-33.28 218.69-33.28L218.69-33.28L218.69-33.28Q219.33-33.28 219.33-32.64L219.33-32.64L219.33-32.64Q219.33-32 218.69-32ZM217.41-34.30L217.41-34.30L217.41-34.30Q216.77-34.30 216.77-34.94L216.77-34.94L216.77-34.94Q216.77-35.58 217.41-35.58L217.41-35.58L217.41-35.58Q218.05-35.58 218.05-34.94L218.05-34.94L218.05-34.94Q218.05-34.30 217.41-34.30ZM215.87-36.48L215.87-36.48L215.87-36.48Q215.23-36.48 215.23-37.12L215.23-37.12L215.23-37.12Q215.23-37.76 215.87-37.76L215.87-37.76L215.87-37.76Q216.51-37.76 216.51-37.12L216.51-37.12L216.51-37.12Q216.51-36.48 215.87-36.48ZM213.95-38.66L213.95-38.66L213.95-38.66Q213.31-38.66 213.31-39.30L213.31-39.30L213.31-39.30Q213.31-39.94 213.95-39.94L213.95-39.94L213.95-39.94Q214.59-39.94 214.59-39.30L214.59-39.30L214.59-39.30Q214.59-38.66 213.95-38.66ZM211.84-40.45L211.84-40.45L211.84-40.45Q211.20-40.45 211.20-41.09L211.20-41.09L211.20-41.09Q211.20-41.73 211.84-41.73L211.84-41.73L211.84-41.73Q212.48-41.73 212.48-41.09L212.48-41.09L212.48-41.09Q212.48-40.45 211.84-40.45ZM209.47-41.92L209.47-41.92L209.47-41.92Q208.83-41.92 208.83-42.56L208.83-42.56L208.83-42.56Q208.83-43.20 209.47-43.20L209.47-43.20L209.47-43.20Q210.11-43.20 210.11-42.56L210.11-42.56L210.11-42.56Q210.11-41.92 209.47-41.92ZM207.04-42.94L207.04-42.94L207.04-42.94Q206.40-42.94 206.40-43.58L206.40-43.58L206.40-43.58Q206.40-44.22 207.04-44.22L207.04-44.22L207.04-44.22Q207.68-44.22 207.68-43.58L207.68-43.58L207.68-43.58Q207.68-42.94 207.04-42.94ZM204.42-43.71L204.42-43.71L204.42-43.71Q203.78-43.71 203.78-44.35L203.78-44.35L203.78-44.35Q203.78-44.99 204.42-44.99L204.42-44.99L204.42-44.99Q205.06-44.99 205.06-44.35L205.06-44.35L205.06-44.35Q205.06-43.71 204.42-43.71ZM232.83-11.52L232.83-11.52L232.83-11.52Q232.19-11.52 232.19-12.16L232.19-12.16L232.19-12.16Q232.19-12.80 232.83-12.80L232.83-12.80L232.83-12.80Q233.47-12.80 233.47-12.16L233.47-12.16L233.47-12.16Q233.47-11.52 232.83-11.52ZM232.83-9.22L232.83-9.22L232.83-9.22Q232.19-9.22 232.19-9.86L232.19-9.86L232.19-9.86Q232.19-10.50 232.83-10.50L232.83-10.50L232.83-10.50Q233.47-10.50 233.47-9.86L233.47-9.86L233.47-9.86Q233.47-9.22 232.83-9.22ZM232.83-6.85L232.83-6.85L232.83-6.85Q232.19-6.85 232.19-7.49L232.19-7.49L232.19-7.49Q232.19-8.13 232.83-8.13L232.83-8.13L232.83-8.13Q233.47-8.13 233.47-7.49L233.47-7.49L233.47-7.49Q233.47-6.85 232.83-6.85ZM232.83-4.54L232.83-4.54L232.83-4.54Q232.19-4.54 232.19-5.18L232.19-5.18L232.19-5.18Q232.19-5.82 232.83-5.82L232.83-5.82L232.83-5.82Q233.47-5.82 233.47-5.18L233.47-5.18L233.47-5.18Q233.47-4.54 232.83-4.54ZM232.83 0L232.83 0L232.83 0Q232.19 0 232.19-0.64L232.19-0.64L232.19-0.64Q232.19-1.28 232.83-1.28L232.83-1.28L232.83-1.28Q233.47-1.28 233.47-0.64L233.47-0.64L233.47-0.64Q233.47 0 232.83 0ZM232.83-31.62L232.83-31.62L232.83-31.62Q232.19-31.62 232.19-32.26L232.19-32.26L232.19-32.26Q232.19-32.90 232.83-32.90L232.83-32.90L232.83-32.90Q233.47-32.90 233.47-32.26L233.47-32.26L233.47-32.26Q233.47-31.62 232.83-31.62ZM232.83-28.93L232.83-28.93L232.83-28.93Q232.19-28.93 232.19-29.57L232.19-29.57L232.19-29.57Q232.19-30.21 232.83-30.21L232.83-30.21L232.83-30.21Q233.47-30.21 233.47-29.57L233.47-29.57L233.47-29.57Q233.47-28.93 232.83-28.93ZM232.83-26.50L232.83-26.50L232.83-26.50Q232.19-26.50 232.19-27.14L232.19-27.14L232.19-27.14Q232.19-27.78 232.83-27.78L232.83-27.78L232.83-27.78Q233.47-27.78 233.47-27.14L233.47-27.14L233.47-27.14Q233.47-26.50 232.83-26.50ZM232.83-21.38L232.83-21.38L232.83-21.38Q232.19-21.38 232.19-22.02L232.19-22.02L232.19-22.02Q232.19-22.66 232.83-22.66L232.83-22.66L232.83-22.66Q233.47-22.66 233.47-22.02L233.47-22.02L233.47-22.02Q233.47-21.38 232.83-21.38ZM232.83-19.01L232.83-19.01L232.83-19.01Q232.19-19.01 232.19-19.65L232.19-19.65L232.19-19.65Q232.19-20.29 232.83-20.29L232.83-20.29L232.83-20.29Q233.47-20.29 233.47-19.65L233.47-19.65L233.47-19.65Q233.47-19.01 232.83-19.01ZM232.83-16.45L232.83-16.45L232.83-16.45Q232.19-16.45 232.19-17.09L232.19-17.09L232.19-17.09Q232.19-17.73 232.83-17.73L232.83-17.73L232.83-17.73Q233.47-17.73 233.47-17.09L233.47-17.09L233.47-17.09Q233.47-16.45 232.83-16.45ZM232.83-14.02L232.83-14.02L232.83-14.02Q232.19-14.02 232.19-14.66L232.19-14.66L232.19-14.66Q232.19-15.30 232.83-15.30L232.83-15.30L232.83-15.30Q233.47-15.30 233.47-14.66L233.47-14.66L233.47-14.66Q233.47-14.02 232.83-14.02ZM233.22-38.98L233.22-38.98L233.22-38.98Q232.58-38.98 232.58-39.62L232.58-39.62L232.58-39.62Q232.58-40.26 233.22-40.26L233.22-40.26L233.22-40.26Q233.86-40.26 233.86-39.62L233.86-39.62L233.86-39.62Q233.86-38.98 233.22-38.98ZM232.83-36.61L232.83-36.61L232.83-36.61Q232.19-36.61 232.19-37.25L232.19-37.25L232.19-37.25Q232.19-37.89 232.83-37.89L232.83-37.89L232.83-37.89Q233.47-37.89 233.47-37.25L233.47-37.25L233.47-37.25Q233.47-36.61 232.83-36.61ZM232.83-34.18L232.83-34.18L232.83-34.18Q232.19-34.18 232.19-34.82L232.19-34.82L232.19-34.82Q232.19-35.46 232.83-35.46L232.83-35.46L232.83-35.46Q233.47-35.46 233.47-34.82L233.47-34.82L233.47-34.82Q233.47-34.18 232.83-34.18ZM232.83-23.94L232.83-23.94L232.83-23.94Q232.19-23.94 232.19-24.58L232.19-24.58L232.19-24.58Q232.19-25.22 232.83-25.22L232.83-25.22L232.83-25.22Q233.47-25.22 233.47-24.58L233.47-24.58L233.47-24.58Q233.47-23.94 232.83-23.94ZM230.08-27.78L230.08-27.78L230.08-27.78Q229.44-27.78 229.44-28.42L229.44-28.42L229.44-28.42Q229.44-29.06 230.08-29.06L230.08-29.06L230.08-29.06Q230.72-29.06 230.72-28.42L230.72-28.42L230.72-28.42Q230.72-27.78 230.08-27.78ZM227.71-27.78L227.71-27.78L227.71-27.78Q227.07-27.78 227.07-28.42L227.07-28.42L227.07-28.42Q227.07-29.06 227.71-29.06L227.71-29.06L227.71-29.06Q228.35-29.06 228.35-28.42L228.35-28.42L228.35-28.42Q228.35-27.78 227.71-27.78ZM235.26-27.78L235.26-27.78L235.26-27.78Q234.62-27.78 234.62-28.42L234.62-28.42L234.62-28.42Q234.62-29.06 235.26-29.06L235.26-29.06L235.26-29.06Q235.90-29.06 235.90-28.42L235.90-28.42L235.90-28.42Q235.90-27.78 235.26-27.78ZM237.70-27.78L237.70-27.78L237.70-27.78Q237.06-27.78 237.06-28.42L237.06-28.42L237.06-28.42Q237.06-29.06 237.70-29.06L237.70-29.06L237.70-29.06Q238.34-29.06 238.34-28.42L238.34-28.42L238.34-28.42Q238.34-27.78 237.70-27.78ZM240.26-27.78L240.26-27.78L240.26-27.78Q239.62-27.78 239.62-28.42L239.62-28.42L239.62-28.42Q239.62-29.06 240.26-29.06L240.26-29.06L240.26-29.06Q240.90-29.06 240.90-28.42L240.90-28.42L240.90-28.42Q240.90-27.78 240.26-27.78ZM232.83-2.30L232.83-2.30L232.83-2.30Q232.19-2.30 232.19-2.94L232.19-2.94L232.19-2.94Q232.19-3.58 232.83-3.58L232.83-3.58L232.83-3.58Q233.47-3.58 233.47-2.94L233.47-2.94L233.47-2.94Q233.47-2.30 232.83-2.30ZM234.05-41.34L234.05-41.34L234.05-41.34Q233.41-41.34 233.41-41.98L233.41-41.98L233.41-41.98Q233.41-42.62 234.05-42.62L234.05-42.62L234.05-42.62Q234.69-42.62 234.69-41.98L234.69-41.98L234.69-41.98Q234.69-41.34 234.05-41.34ZM235.33-43.26L235.33-43.26L235.33-43.26Q234.69-43.26 234.69-43.90L234.69-43.90L234.69-43.90Q234.69-44.54 235.33-44.54L235.33-44.54L235.33-44.54Q235.97-44.54 235.97-43.90L235.97-43.90L235.97-43.90Q235.97-43.26 235.33-43.26ZM236.99-44.74L236.99-44.74L236.99-44.74Q236.35-44.74 236.35-45.38L236.35-45.38L236.35-45.38Q236.35-46.02 236.99-46.02L236.99-46.02L236.99-46.02Q237.63-46.02 237.63-45.38L237.63-45.38L237.63-45.38Q237.63-44.74 236.99-44.74ZM239.17-45.70L239.17-45.70L239.17-45.70Q238.53-45.70 238.53-46.34L238.53-46.34L238.53-46.34Q238.53-46.98 239.17-46.98L239.17-46.98L239.17-46.98Q239.81-46.98 239.81-46.34L239.81-46.34L239.81-46.34Q239.81-45.70 239.17-45.70ZM241.47-45.76L241.47-45.76L241.47-45.76Q240.83-45.76 240.83-46.40L240.83-46.40L240.83-46.40Q240.83-47.04 241.47-47.04L241.47-47.04L241.47-47.04Q242.11-47.04 242.11-46.40L242.11-46.40L242.11-46.40Q242.11-45.76 241.47-45.76ZM243.71-45.31L243.71-45.31L243.71-45.31Q243.07-45.31 243.07-45.95L243.07-45.95L243.07-45.95Q243.07-46.59 243.71-46.59L243.71-46.59L243.71-46.59Q244.35-46.59 244.35-45.95L244.35-45.95L244.35-45.95Q244.35-45.31 243.71-45.31ZM245.70-44.42L245.70-44.42L245.70-44.42Q245.06-44.42 245.06-45.06L245.06-45.06L245.06-45.06Q245.06-45.70 245.70-45.70L245.70-45.70L245.70-45.70Q246.34-45.70 246.34-45.06L246.34-45.06L246.34-45.06Q246.34-44.42 245.70-44.42ZM253.06-45.18L253.06-45.18L253.06-45.18Q252.42-45.18 252.42-45.82L252.42-45.82L252.42-45.82Q252.42-46.46 253.06-46.46L253.06-46.46L253.06-46.46Q253.70-46.46 253.70-45.82L253.70-45.82L253.70-45.82Q253.70-45.18 253.06-45.18ZM253.06-43.01L253.06-43.01L253.06-43.01Q252.42-43.01 252.42-43.65L252.42-43.65L252.42-43.65Q252.42-44.29 253.06-44.29L253.06-44.29L253.06-44.29Q253.70-44.29 253.70-43.65L253.70-43.65L253.70-43.65Q253.70-43.01 253.06-43.01ZM253.06-40.77L253.06-40.77L253.06-40.77Q252.42-40.77 252.42-41.41L252.42-41.41L252.42-41.41Q252.42-42.05 253.06-42.05L253.06-42.05L253.06-42.05Q253.70-42.05 253.70-41.41L253.70-41.41L253.70-41.41Q253.70-40.77 253.06-40.77ZM253.06-38.53L253.06-38.53L253.06-38.53Q252.42-38.53 252.42-39.17L252.42-39.17L252.42-39.17Q252.42-39.81 253.06-39.81L253.06-39.81L253.06-39.81Q253.70-39.81 253.70-39.17L253.70-39.17L253.70-39.17Q253.70-38.53 253.06-38.53ZM253.06-36.29L253.06-36.29L253.06-36.29Q252.42-36.29 252.42-36.93L252.42-36.93L252.42-36.93Q252.42-37.57 253.06-37.57L253.06-37.57L253.06-37.57Q253.70-37.57 253.70-36.93L253.70-36.93L253.70-36.93Q253.70-36.29 253.06-36.29ZM253.06-34.05L253.06-34.05L253.06-34.05Q252.42-34.05 252.42-34.69L252.42-34.69L252.42-34.69Q252.42-35.33 253.06-35.33L253.06-35.33L253.06-35.33Q253.70-35.33 253.70-34.69L253.70-34.69L253.70-34.69Q253.70-34.05 253.06-34.05ZM253.06-31.81L253.06-31.81L253.06-31.81Q252.42-31.81 252.42-32.45L252.42-32.45L252.42-32.45Q252.42-33.09 253.06-33.09L253.06-33.09L253.06-33.09Q253.70-33.09 253.70-32.45L253.70-32.45L253.70-32.45Q253.70-31.81 253.06-31.81ZM253.06-29.57L253.06-29.57L253.06-29.57Q252.42-29.57 252.42-30.21L252.42-30.21L252.42-30.21Q252.42-30.85 253.06-30.85L253.06-30.85L253.06-30.85Q253.70-30.85 253.70-30.21L253.70-30.21L253.70-30.21Q253.70-29.57 253.06-29.57ZM253.06-27.26L253.06-27.26L253.06-27.26Q252.42-27.26 252.42-27.90L252.42-27.90L252.42-27.90Q252.42-28.54 253.06-28.54L253.06-28.54L253.06-28.54Q253.70-28.54 253.70-27.90L253.70-27.90L253.70-27.90Q253.70-27.26 253.06-27.26ZM253.06-25.02L253.06-25.02L253.06-25.02Q252.42-25.02 252.42-25.66L252.42-25.66L252.42-25.66Q252.42-26.30 253.06-26.30L253.06-26.30L253.06-26.30Q253.70-26.30 253.70-25.66L253.70-25.66L253.70-25.66Q253.70-25.02 253.06-25.02ZM253.06-22.78L253.06-22.78L253.06-22.78Q252.42-22.78 252.42-23.42L252.42-23.42L252.42-23.42Q252.42-24.06 253.06-24.06L253.06-24.06L253.06-24.06Q253.70-24.06 253.70-23.42L253.70-23.42L253.70-23.42Q253.70-22.78 253.06-22.78ZM253.06-20.54L253.06-20.54L253.06-20.54Q252.42-20.54 252.42-21.18L252.42-21.18L252.42-21.18Q252.42-21.82 253.06-21.82L253.06-21.82L253.06-21.82Q253.70-21.82 253.70-21.18L253.70-21.18L253.70-21.18Q253.70-20.54 253.06-20.54ZM253.06-18.30L253.06-18.30L253.06-18.30Q252.42-18.30 252.42-18.94L252.42-18.94L252.42-18.94Q252.42-19.58 253.06-19.58L253.06-19.58L253.06-19.58Q253.70-19.58 253.70-18.94L253.70-18.94L253.70-18.94Q253.70-18.30 253.06-18.30ZM253.06-16.06L253.06-16.06L253.06-16.06Q252.42-16.06 252.42-16.70L252.42-16.70L252.42-16.70Q252.42-17.34 253.06-17.34L253.06-17.34L253.06-17.34Q253.70-17.34 253.70-16.70L253.70-16.70L253.70-16.70Q253.70-16.06 253.06-16.06ZM253.06-13.82L253.06-13.82L253.06-13.82Q252.42-13.82 252.42-14.46L252.42-14.46L252.42-14.46Q252.42-15.10 253.06-15.10L253.06-15.10L253.06-15.10Q253.70-15.10 253.70-14.46L253.70-14.46L253.70-14.46Q253.70-13.82 253.06-13.82ZM253.06-11.58L253.06-11.58L253.06-11.58Q252.42-11.58 252.42-12.22L252.42-12.22L252.42-12.22Q252.42-12.86 253.06-12.86L253.06-12.86L253.06-12.86Q253.70-12.86 253.70-12.22L253.70-12.22L253.70-12.22Q253.70-11.58 253.06-11.58ZM253.06-9.22L253.06-9.22L253.06-9.22Q252.42-9.22 252.42-9.86L252.42-9.86L252.42-9.86Q252.42-10.50 253.06-10.50L253.06-10.50L253.06-10.50Q253.70-10.50 253.70-9.86L253.70-9.86L253.70-9.86Q253.70-9.22 253.06-9.22ZM253.06-6.98L253.06-6.98L253.06-6.98Q252.42-6.98 252.42-7.62L252.42-7.62L252.42-7.62Q252.42-8.26 253.06-8.26L253.06-8.26L253.06-8.26Q253.70-8.26 253.70-7.62L253.70-7.62L253.70-7.62Q253.70-6.98 253.06-6.98ZM253.06-4.74L253.06-4.74L253.06-4.74Q252.42-4.74 252.42-5.38L252.42-5.38L252.42-5.38Q252.42-6.02 253.06-6.02L253.06-6.02L253.06-6.02Q253.70-6.02 253.70-5.38L253.70-5.38L253.70-5.38Q253.70-4.74 253.06-4.74ZM253.06-2.50L253.06-2.50L253.06-2.50Q252.42-2.50 252.42-3.14L252.42-3.14L252.42-3.14Q252.42-3.78 253.06-3.78L253.06-3.78L253.06-3.78Q253.70-3.78 253.70-3.14L253.70-3.14L253.70-3.14Q253.70-2.50 253.06-2.50ZM253.06-0.26L253.06-0.26L253.06-0.26Q252.42-0.26 252.42-0.90L252.42-0.90L252.42-0.90Q252.42-1.54 253.06-1.54L253.06-1.54L253.06-1.54Q253.70-1.54 253.70-0.90L253.70-0.90L253.70-0.90Q253.70-0.26 253.06-0.26ZM255.30-0.26L255.30-0.26L255.30-0.26Q254.66-0.26 254.66-0.90L254.66-0.90L254.66-0.90Q254.66-1.54 255.30-1.54L255.30-1.54L255.30-1.54Q255.94-1.54 255.94-0.90L255.94-0.90L255.94-0.90Q255.94-0.26 255.30-0.26ZM257.54-0.26L257.54-0.26L257.54-0.26Q256.90-0.26 256.90-0.90L256.90-0.90L256.90-0.90Q256.90-1.54 257.54-1.54L257.54-1.54L257.54-1.54Q258.18-1.54 258.18-0.90L258.18-0.90L258.18-0.90Q258.18-0.26 257.54-0.26ZM259.78-0.26L259.78-0.26L259.78-0.26Q259.14-0.26 259.14-0.90L259.14-0.90L259.14-0.90Q259.14-1.54 259.78-1.54L259.78-1.54L259.78-1.54Q260.42-1.54 260.42-0.90L260.42-0.90L260.42-0.90Q260.42-0.26 259.78-0.26ZM262.02-0.26L262.02-0.26L262.02-0.26Q261.38-0.26 261.38-0.90L261.38-0.90L261.38-0.90Q261.38-1.54 262.02-1.54L262.02-1.54L262.02-1.54Q262.66-1.54 262.66-0.90L262.66-0.90L262.66-0.90Q262.66-0.26 262.02-0.26ZM264.26-0.26L264.26-0.26L264.26-0.26Q263.62-0.26 263.62-0.90L263.62-0.90L263.62-0.90Q263.62-1.54 264.26-1.54L264.26-1.54L264.26-1.54Q264.90-1.54 264.90-0.90L264.90-0.90L264.90-0.90Q264.90-0.26 264.26-0.26ZM266.50-0.26L266.50-0.26L266.50-0.26Q265.86-0.26 265.86-0.90L265.86-0.90L265.86-0.90Q265.86-1.54 266.50-1.54L266.50-1.54L266.50-1.54Q267.14-1.54 267.14-0.90L267.14-0.90L267.14-0.90Q267.14-0.26 266.50-0.26ZM268.74-0.26L268.74-0.26L268.74-0.26Q268.10-0.26 268.10-0.90L268.10-0.90L268.10-0.90Q268.10-1.54 268.74-1.54L268.74-1.54L268.74-1.54Q269.38-1.54 269.38-0.90L269.38-0.90L269.38-0.90Q269.38-0.26 268.74-0.26ZM270.98-0.26L270.98-0.26L270.98-0.26Q270.34-0.26 270.34-0.90L270.34-0.90L270.34-0.90Q270.34-1.54 270.98-1.54L270.98-1.54L270.98-1.54Q271.62-1.54 271.62-0.90L271.62-0.90L271.62-0.90Q271.62-0.26 270.98-0.26ZM273.22-0.26L273.22-0.26L273.22-0.26Q272.58-0.26 272.58-0.90L272.58-0.90L272.58-0.90Q272.58-1.54 273.22-1.54L273.22-1.54L273.22-1.54Q273.86-1.54 273.86-0.90L273.86-0.90L273.86-0.90Q273.86-0.26 273.22-0.26ZM275.46-0.26L275.46-0.26L275.46-0.26Q274.82-0.26 274.82-0.90L274.82-0.90L274.82-0.90Q274.82-1.54 275.46-1.54L275.46-1.54L275.46-1.54Q276.10-1.54 276.10-0.90L276.10-0.90L276.10-0.90Q276.10-0.26 275.46-0.26ZM277.70-0.26L277.70-0.26L277.70-0.26Q277.06-0.26 277.06-0.90L277.06-0.90L277.06-0.90Q277.06-1.54 277.70-1.54L277.70-1.54L277.70-1.54Q278.34-1.54 278.34-0.90L278.34-0.90L278.34-0.90Q278.34-0.26 277.70-0.26ZM279.94-0.26L279.94-0.26L279.94-0.26Q279.30-0.26 279.30-0.90L279.30-0.90L279.30-0.90Q279.30-1.54 279.94-1.54L279.94-1.54L279.94-1.54Q280.58-1.54 280.58-0.90L280.58-0.90L280.58-0.90Q280.58-0.26 279.94-0.26ZM282.18-0.26L282.18-0.26L282.18-0.26Q281.54-0.26 281.54-0.90L281.54-0.90L281.54-0.90Q281.54-1.54 282.18-1.54L282.18-1.54L282.18-1.54Q282.82-1.54 282.82-0.90L282.82-0.90L282.82-0.90Q282.82-0.26 282.18-0.26ZM289.79-14.78L289.79-14.78L289.79-14.78Q289.15-14.78 289.15-15.42L289.15-15.42L289.15-15.42Q289.15-16.06 289.79-16.06L289.79-16.06L289.79-16.06Q290.43-16.06 290.43-15.42L290.43-15.42L290.43-15.42Q290.43-14.78 289.79-14.78ZM289.79-12.22L289.79-12.22L289.79-12.22Q289.15-12.22 289.15-12.86L289.15-12.86L289.15-12.86Q289.15-13.50 289.79-13.50L289.79-13.50L289.79-13.50Q290.43-13.50 290.43-12.86L290.43-12.86L290.43-12.86Q290.43-12.22 289.79-12.22ZM289.79-9.66L289.79-9.66L289.79-9.66Q289.15-9.66 289.15-10.30L289.15-10.30L289.15-10.30Q289.15-10.94 289.79-10.94L289.79-10.94L289.79-10.94Q290.43-10.94 290.43-10.30L290.43-10.30L290.43-10.30Q290.43-9.66 289.79-9.66ZM289.79-7.23L289.79-7.23L289.79-7.23Q289.15-7.23 289.15-7.87L289.15-7.87L289.15-7.87Q289.15-8.51 289.79-8.51L289.79-8.51L289.79-8.51Q290.43-8.51 290.43-7.87L290.43-7.87L290.43-7.87Q290.43-7.23 289.79-7.23ZM289.79-4.54L289.79-4.54L289.79-4.54Q289.15-4.54 289.15-5.18L289.15-5.18L289.15-5.18Q289.15-5.82 289.79-5.82L289.79-5.82L289.79-5.82Q290.43-5.82 290.43-5.18L290.43-5.18L290.43-5.18Q290.43-4.54 289.79-4.54ZM289.79-2.24L289.79-2.24L289.79-2.24Q289.15-2.24 289.15-2.88L289.15-2.88L289.15-2.88Q289.15-3.52 289.79-3.52L289.79-3.52L289.79-3.52Q290.43-3.52 290.43-2.88L290.43-2.88L290.43-2.88Q290.43-2.24 289.79-2.24ZM289.79 0L289.79 0L289.79 0Q289.15 0 289.15-0.64L289.15-0.64L289.15-0.64Q289.15-1.28 289.79-1.28L289.79-1.28L289.79-1.28Q290.43-1.28 290.43-0.64L290.43-0.64L290.43-0.64Q290.43 0 289.79 0ZM289.79-32L289.79-32L289.79-32Q289.15-32 289.15-32.64L289.15-32.64L289.15-32.64Q289.15-33.28 289.79-33.28L289.79-33.28L289.79-33.28Q290.43-33.28 290.43-32.64L290.43-32.64L290.43-32.64Q290.43-32 289.79-32ZM289.79-24.77L289.79-24.77L289.79-24.77Q289.15-24.77 289.15-25.41L289.15-25.41L289.15-25.41Q289.15-26.05 289.79-26.05L289.79-26.05L289.79-26.05Q290.43-26.05 290.43-25.41L290.43-25.41L290.43-25.41Q290.43-24.77 289.79-24.77ZM289.79-22.40L289.79-22.40L289.79-22.40Q289.15-22.40 289.15-23.04L289.15-23.04L289.15-23.04Q289.15-23.68 289.79-23.68L289.79-23.68L289.79-23.68Q290.43-23.68 290.43-23.04L290.43-23.04L290.43-23.04Q290.43-22.40 289.79-22.40ZM289.79-19.97L289.79-19.97L289.79-19.97Q289.15-19.97 289.15-20.61L289.15-20.61L289.15-20.61Q289.15-21.25 289.79-21.25L289.79-21.25L289.79-21.25Q290.43-21.25 290.43-20.61L290.43-20.61L290.43-20.61Q290.43-19.97 289.79-19.97ZM289.79-17.41L289.79-17.41L289.79-17.41Q289.15-17.41 289.15-18.05L289.15-18.05L289.15-18.05Q289.15-18.69 289.79-18.69L289.79-18.69L289.79-18.69Q290.43-18.69 290.43-18.05L290.43-18.05L290.43-18.05Q290.43-17.41 289.79-17.41ZM289.79-27.07L289.79-27.07L289.79-27.07Q289.15-27.07 289.15-27.71L289.15-27.71L289.15-27.71Q289.15-28.35 289.79-28.35L289.79-28.35L289.79-28.35Q290.43-28.35 290.43-27.71L290.43-27.71L290.43-27.71Q290.43-27.07 289.79-27.07ZM289.79-29.63L289.79-29.63L289.79-29.63Q289.15-29.63 289.15-30.27L289.15-30.27L289.15-30.27Q289.15-30.91 289.79-30.91L289.79-30.91L289.79-30.91Q290.43-30.91 290.43-30.27L290.43-30.27L290.43-30.27Q290.43-29.63 289.79-29.63ZM289.79-45.44L289.79-45.44L289.79-45.44Q289.15-45.44 289.15-46.08L289.15-46.08L289.15-46.08Q289.15-46.72 289.79-46.72L289.79-46.72L289.79-46.72Q290.43-46.72 290.43-46.08L290.43-46.08L290.43-46.08Q290.43-45.44 289.79-45.44ZM289.79-40.83L289.79-40.83L289.79-40.83Q289.15-40.83 289.15-41.47L289.15-41.47L289.15-41.47Q289.15-42.11 289.79-42.11L289.79-42.11L289.79-42.11Q290.43-42.11 290.43-41.47L290.43-41.47L290.43-41.47Q290.43-40.83 289.79-40.83ZM289.79-43.07L289.79-43.07L289.79-43.07Q289.15-43.07 289.15-43.71L289.15-43.71L289.15-43.71Q289.15-44.35 289.79-44.35L289.79-44.35L289.79-44.35Q290.43-44.35 290.43-43.71L290.43-43.71L290.43-43.71Q290.43-43.07 289.79-43.07ZM304-11.52L304-11.52L304-11.52Q303.36-11.52 303.36-12.16L303.36-12.16L303.36-12.16Q303.36-12.80 304-12.80L304-12.80L304-12.80Q304.64-12.80 304.64-12.16L304.64-12.16L304.64-12.16Q304.64-11.52 304-11.52ZM304-9.22L304-9.22L304-9.22Q303.36-9.22 303.36-9.86L303.36-9.86L303.36-9.86Q303.36-10.50 304-10.50L304-10.50L304-10.50Q304.64-10.50 304.64-9.86L304.64-9.86L304.64-9.86Q304.64-9.22 304-9.22ZM304-6.85L304-6.85L304-6.85Q303.36-6.85 303.36-7.49L303.36-7.49L303.36-7.49Q303.36-8.13 304-8.13L304-8.13L304-8.13Q304.64-8.13 304.64-7.49L304.64-7.49L304.64-7.49Q304.64-6.85 304-6.85ZM304-4.54L304-4.54L304-4.54Q303.36-4.54 303.36-5.18L303.36-5.18L303.36-5.18Q303.36-5.82 304-5.82L304-5.82L304-5.82Q304.64-5.82 304.64-5.18L304.64-5.18L304.64-5.18Q304.64-4.54 304-4.54ZM304 0L304 0L304 0Q303.36 0 303.36-0.64L303.36-0.64L303.36-0.64Q303.36-1.28 304-1.28L304-1.28L304-1.28Q304.64-1.28 304.64-0.64L304.64-0.64L304.64-0.64Q304.64 0 304 0ZM304-31.62L304-31.62L304-31.62Q303.36-31.62 303.36-32.26L303.36-32.26L303.36-32.26Q303.36-32.90 304-32.90L304-32.90L304-32.90Q304.64-32.90 304.64-32.26L304.64-32.26L304.64-32.26Q304.64-31.62 304-31.62ZM304-28.93L304-28.93L304-28.93Q303.36-28.93 303.36-29.57L303.36-29.57L303.36-29.57Q303.36-30.21 304-30.21L304-30.21L304-30.21Q304.64-30.21 304.64-29.57L304.64-29.57L304.64-29.57Q304.64-28.93 304-28.93ZM304-26.50L304-26.50L304-26.50Q303.36-26.50 303.36-27.14L303.36-27.14L303.36-27.14Q303.36-27.78 304-27.78L304-27.78L304-27.78Q304.64-27.78 304.64-27.14L304.64-27.14L304.64-27.14Q304.64-26.50 304-26.50ZM304-21.38L304-21.38L304-21.38Q303.36-21.38 303.36-22.02L303.36-22.02L303.36-22.02Q303.36-22.66 304-22.66L304-22.66L304-22.66Q304.64-22.66 304.64-22.02L304.64-22.02L304.64-22.02Q304.64-21.38 304-21.38ZM304-19.01L304-19.01L304-19.01Q303.36-19.01 303.36-19.65L303.36-19.65L303.36-19.65Q303.36-20.29 304-20.29L304-20.29L304-20.29Q304.64-20.29 304.64-19.65L304.64-19.65L304.64-19.65Q304.64-19.01 304-19.01ZM304-16.45L304-16.45L304-16.45Q303.36-16.45 303.36-17.09L303.36-17.09L303.36-17.09Q303.36-17.73 304-17.73L304-17.73L304-17.73Q304.64-17.73 304.64-17.09L304.64-17.09L304.64-17.09Q304.64-16.45 304-16.45ZM304-14.02L304-14.02L304-14.02Q303.36-14.02 303.36-14.66L303.36-14.66L303.36-14.66Q303.36-15.30 304-15.30L304-15.30L304-15.30Q304.64-15.30 304.64-14.66L304.64-14.66L304.64-14.66Q304.64-14.02 304-14.02ZM304.38-38.98L304.38-38.98L304.38-38.98Q303.74-38.98 303.74-39.62L303.74-39.62L303.74-39.62Q303.74-40.26 304.38-40.26L304.38-40.26L304.38-40.26Q305.02-40.26 305.02-39.62L305.02-39.62L305.02-39.62Q305.02-38.98 304.38-38.98ZM304-36.61L304-36.61L304-36.61Q303.36-36.61 303.36-37.25L303.36-37.25L303.36-37.25Q303.36-37.89 304-37.89L304-37.89L304-37.89Q304.64-37.89 304.64-37.25L304.64-37.25L304.64-37.25Q304.64-36.61 304-36.61ZM304-34.18L304-34.18L304-34.18Q303.36-34.18 303.36-34.82L303.36-34.82L303.36-34.82Q303.36-35.46 304-35.46L304-35.46L304-35.46Q304.64-35.46 304.64-34.82L304.64-34.82L304.64-34.82Q304.64-34.18 304-34.18ZM304-23.94L304-23.94L304-23.94Q303.36-23.94 303.36-24.58L303.36-24.58L303.36-24.58Q303.36-25.22 304-25.22L304-25.22L304-25.22Q304.64-25.22 304.64-24.58L304.64-24.58L304.64-24.58Q304.64-23.94 304-23.94ZM301.25-27.78L301.25-27.78L301.25-27.78Q300.61-27.78 300.61-28.42L300.61-28.42L300.61-28.42Q300.61-29.06 301.25-29.06L301.25-29.06L301.25-29.06Q301.89-29.06 301.89-28.42L301.89-28.42L301.89-28.42Q301.89-27.78 301.25-27.78ZM298.88-27.78L298.88-27.78L298.88-27.78Q298.24-27.78 298.24-28.42L298.24-28.42L298.24-28.42Q298.24-29.06 298.88-29.06L298.88-29.06L298.88-29.06Q299.52-29.06 299.52-28.42L299.52-28.42L299.52-28.42Q299.52-27.78 298.88-27.78ZM306.43-27.78L306.43-27.78L306.43-27.78Q305.79-27.78 305.79-28.42L305.79-28.42L305.79-28.42Q305.79-29.06 306.43-29.06L306.43-29.06L306.43-29.06Q307.07-29.06 307.07-28.42L307.07-28.42L307.07-28.42Q307.07-27.78 306.43-27.78ZM308.86-27.78L308.86-27.78L308.86-27.78Q308.22-27.78 308.22-28.42L308.22-28.42L308.22-28.42Q308.22-29.06 308.86-29.06L308.86-29.06L308.86-29.06Q309.50-29.06 309.50-28.42L309.50-28.42L309.50-28.42Q309.50-27.78 308.86-27.78ZM311.42-27.78L311.42-27.78L311.42-27.78Q310.78-27.78 310.78-28.42L310.78-28.42L310.78-28.42Q310.78-29.06 311.42-29.06L311.42-29.06L311.42-29.06Q312.06-29.06 312.06-28.42L312.06-28.42L312.06-28.42Q312.06-27.78 311.42-27.78ZM304-2.30L304-2.30L304-2.30Q303.36-2.30 303.36-2.94L303.36-2.94L303.36-2.94Q303.36-3.58 304-3.58L304-3.58L304-3.58Q304.64-3.58 304.64-2.94L304.64-2.94L304.64-2.94Q304.64-2.30 304-2.30ZM305.22-41.34L305.22-41.34L305.22-41.34Q304.58-41.34 304.58-41.98L304.58-41.98L304.58-41.98Q304.58-42.62 305.22-42.62L305.22-42.62L305.22-42.62Q305.86-42.62 305.86-41.98L305.86-41.98L305.86-41.98Q305.86-41.34 305.22-41.34ZM306.50-43.26L306.50-43.26L306.50-43.26Q305.86-43.26 305.86-43.90L305.86-43.90L305.86-43.90Q305.86-44.54 306.50-44.54L306.50-44.54L306.50-44.54Q307.14-44.54 307.14-43.90L307.14-43.90L307.14-43.90Q307.14-43.26 306.50-43.26ZM308.16-44.74L308.16-44.74L308.16-44.74Q307.52-44.74 307.52-45.38L307.52-45.38L307.52-45.38Q307.52-46.02 308.16-46.02L308.16-46.02L308.16-46.02Q308.80-46.02 308.80-45.38L308.80-45.38L308.80-45.38Q308.80-44.74 308.16-44.74ZM310.34-45.70L310.34-45.70L310.34-45.70Q309.70-45.70 309.70-46.34L309.70-46.34L309.70-46.34Q309.70-46.98 310.34-46.98L310.34-46.98L310.34-46.98Q310.98-46.98 310.98-46.34L310.98-46.34L310.98-46.34Q310.98-45.70 310.34-45.70ZM312.64-45.76L312.64-45.76L312.64-45.76Q312-45.76 312-46.40L312-46.40L312-46.40Q312-47.04 312.64-47.04L312.64-47.04L312.64-47.04Q313.28-47.04 313.28-46.40L313.28-46.40L313.28-46.40Q313.28-45.76 312.64-45.76ZM314.88-45.31L314.88-45.31L314.88-45.31Q314.24-45.31 314.24-45.95L314.24-45.95L314.24-45.95Q314.24-46.59 314.88-46.59L314.88-46.59L314.88-46.59Q315.52-46.59 315.52-45.95L315.52-45.95L315.52-45.95Q315.52-45.31 314.88-45.31ZM316.86-44.42L316.86-44.42L316.86-44.42Q316.22-44.42 316.22-45.06L316.22-45.06L316.22-45.06Q316.22-45.70 316.86-45.70L316.86-45.70L316.86-45.70Q317.50-45.70 317.50-45.06L317.50-45.06L317.50-45.06Q317.50-44.42 316.86-44.42ZM335.94-32.26L335.94-32.26L335.94-32.26Q335.30-32.26 335.30-32.90L335.30-32.90L335.30-32.90Q335.30-33.54 335.94-33.54L335.94-33.54L335.94-33.54Q336.58-33.54 336.58-32.90L336.58-32.90L336.58-32.90Q336.58-32.26 335.94-32.26ZM338.88-31.81L338.88-31.81L338.88-31.81Q338.24-31.81 338.24-32.45L338.24-32.45L338.24-32.45Q338.24-33.09 338.88-33.09L338.88-33.09L338.88-33.09Q339.52-33.09 339.52-32.45L339.52-32.45L339.52-32.45Q339.52-31.81 338.88-31.81ZM341.44-30.98L341.44-30.98L341.44-30.98Q340.80-30.98 340.80-31.62L340.80-31.62L340.80-31.62Q340.80-32.26 341.44-32.26L341.44-32.26L341.44-32.26Q342.08-32.26 342.08-31.62L342.08-31.62L342.08-31.62Q342.08-30.98 341.44-30.98ZM343.94-29.50L343.94-29.50L343.94-29.50Q343.30-29.50 343.30-30.14L343.30-30.14L343.30-30.14Q343.30-30.78 343.94-30.78L343.94-30.78L343.94-30.78Q344.58-30.78 344.58-30.14L344.58-30.14L344.58-30.14Q344.58-29.50 343.94-29.50ZM345.98-27.71L345.98-27.71L345.98-27.71Q345.34-27.71 345.34-28.35L345.34-28.35L345.34-28.35Q345.34-28.99 345.98-28.99L345.98-28.99L345.98-28.99Q346.62-28.99 346.62-28.35L346.62-28.35L346.62-28.35Q346.62-27.71 345.98-27.71ZM349.12-23.30L349.12-23.30L349.12-23.30Q348.48-23.30 348.48-23.94L348.48-23.94L348.48-23.94Q348.48-24.58 349.12-24.58L349.12-24.58L349.12-24.58Q349.76-24.58 349.76-23.94L349.76-23.94L349.76-23.94Q349.76-23.30 349.12-23.30ZM350.08-20.93L350.08-20.93L350.08-20.93Q349.44-20.93 349.44-21.57L349.44-21.57L349.44-21.57Q349.44-22.21 350.08-22.21L350.08-22.21L350.08-22.21Q350.72-22.21 350.72-21.57L350.72-21.57L350.72-21.57Q350.72-20.93 350.08-20.93ZM350.85-16L350.85-16L350.85-16Q350.21-16 350.21-16.64L350.21-16.64L350.21-16.64Q350.21-17.28 350.85-17.28L350.85-17.28L350.85-17.28Q351.49-17.28 351.49-16.64L351.49-16.64L351.49-16.64Q351.49-16 350.85-16ZM347.78-25.54L347.78-25.54L347.78-25.54Q347.14-25.54 347.14-26.18L347.14-26.18L347.14-26.18Q347.14-26.82 347.78-26.82L347.78-26.82L347.78-26.82Q348.42-26.82 348.42-26.18L348.42-26.18L348.42-26.18Q348.42-25.54 347.78-25.54ZM350.53-18.50L350.53-18.50L350.53-18.50Q349.89-18.50 349.89-19.14L349.89-19.14L349.89-19.14Q349.89-19.78 350.53-19.78L350.53-19.78L350.53-19.78Q351.17-19.78 351.17-19.14L351.17-19.14L351.17-19.14Q351.17-18.50 350.53-18.50ZM332.93-31.81L332.93-31.81L332.93-31.81Q332.29-31.81 332.29-32.45L332.29-32.45L332.29-32.45Q332.29-33.09 332.93-33.09L332.93-33.09L332.93-33.09Q333.57-33.09 333.57-32.45L333.57-32.45L333.57-32.45Q333.57-31.81 332.93-31.81ZM330.37-30.98L330.37-30.98L330.37-30.98Q329.73-30.98 329.73-31.62L329.73-31.62L329.73-31.62Q329.73-32.26 330.37-32.26L330.37-32.26L330.37-32.26Q331.01-32.26 331.01-31.62L331.01-31.62L331.01-31.62Q331.01-30.98 330.37-30.98ZM327.87-29.50L327.87-29.50L327.87-29.50Q327.23-29.50 327.23-30.14L327.23-30.14L327.23-30.14Q327.23-30.78 327.87-30.78L327.87-30.78L327.87-30.78Q328.51-30.78 328.51-30.14L328.51-30.14L328.51-30.14Q328.51-29.50 327.87-29.50ZM325.82-27.71L325.82-27.71L325.82-27.71Q325.18-27.71 325.18-28.35L325.18-28.35L325.18-28.35Q325.18-28.99 325.82-28.99L325.82-28.99L325.82-28.99Q326.46-28.99 326.46-28.35L326.46-28.35L326.46-28.35Q326.46-27.71 325.82-27.71ZM322.69-23.30L322.69-23.30L322.69-23.30Q322.05-23.30 322.05-23.94L322.05-23.94L322.05-23.94Q322.05-24.58 322.69-24.58L322.69-24.58L322.69-24.58Q323.33-24.58 323.33-23.94L323.33-23.94L323.33-23.94Q323.33-23.30 322.69-23.30ZM321.73-20.93L321.73-20.93L321.73-20.93Q321.09-20.93 321.09-21.57L321.09-21.57L321.09-21.57Q321.09-22.21 321.73-22.21L321.73-22.21L321.73-22.21Q322.37-22.21 322.37-21.57L322.37-21.57L322.37-21.57Q322.37-20.93 321.73-20.93ZM320.96-16L320.96-16L320.96-16Q320.32-16 320.32-16.64L320.32-16.64L320.32-16.64Q320.32-17.28 320.96-17.28L320.96-17.28L320.96-17.28Q321.60-17.28 321.60-16.64L321.60-16.64L321.60-16.64Q321.60-16 320.96-16ZM324.03-25.54L324.03-25.54L324.03-25.54Q323.39-25.54 323.39-26.18L323.39-26.18L323.39-26.18Q323.39-26.82 324.03-26.82L324.03-26.82L324.03-26.82Q324.67-26.82 324.67-26.18L324.67-26.18L324.67-26.18Q324.67-25.54 324.03-25.54ZM321.22-18.56L321.22-18.56L321.22-18.56Q320.58-18.56 320.58-19.20L320.58-19.20L320.58-19.20Q320.58-19.84 321.22-19.84L321.22-19.84L321.22-19.84Q321.86-19.84 321.86-19.20L321.86-19.20L321.86-19.20Q321.86-18.56 321.22-18.56ZM335.94-0.96L335.94-0.96L335.94-0.96Q336.58-0.96 336.58-0.32L336.58-0.32L336.58-0.32Q336.58 0.32 335.94 0.32L335.94 0.32L335.94 0.32Q335.30 0.32 335.30-0.32L335.30-0.32L335.30-0.32Q335.30-0.96 335.94-0.96ZM338.94-1.28L338.94-1.28L338.94-1.28Q339.58-1.28 339.58-0.64L339.58-0.64L339.58-0.64Q339.58 0 338.94 0L338.94 0L338.94 0Q338.30 0 338.30-0.64L338.30-0.64L338.30-0.64Q338.30-1.28 338.94-1.28ZM341.76-2.18L341.76-2.18L341.76-2.18Q342.40-2.18 342.40-1.54L342.40-1.54L342.40-1.54Q342.40-0.90 341.76-0.90L341.76-0.90L341.76-0.90Q341.12-0.90 341.12-1.54L341.12-1.54L341.12-1.54Q341.12-2.18 341.76-2.18ZM344.19-3.52L344.19-3.52L344.19-3.52Q344.83-3.52 344.83-2.88L344.83-2.88L344.83-2.88Q344.83-2.24 344.19-2.24L344.19-2.24L344.19-2.24Q343.55-2.24 343.55-2.88L343.55-2.88L343.55-2.88Q343.55-3.52 344.19-3.52ZM346.24-5.31L346.24-5.31L346.24-5.31Q346.88-5.31 346.88-4.67L346.88-4.67L346.88-4.67Q346.88-4.03 346.24-4.03L346.24-4.03L346.24-4.03Q345.60-4.03 345.60-4.67L345.60-4.67L345.60-4.67Q345.60-5.31 346.24-5.31ZM348.03-7.49L348.03-7.49L348.03-7.49Q348.67-7.49 348.67-6.85L348.67-6.85L348.67-6.85Q348.67-6.21 348.03-6.21L348.03-6.21L348.03-6.21Q347.39-6.21 347.39-6.85L347.39-6.85L347.39-6.85Q347.39-7.49 348.03-7.49ZM332.86-1.41L332.86-1.41L332.86-1.41Q333.50-1.41 333.50-0.77L333.50-0.77L333.50-0.77Q333.50-0.13 332.86-0.13L332.86-0.13L332.86-0.13Q332.22-0.13 332.22-0.77L332.22-0.77L332.22-0.77Q332.22-1.41 332.86-1.41ZM330.37-2.37L330.37-2.37L330.37-2.37Q331.01-2.37 331.01-1.73L331.01-1.73L331.01-1.73Q331.01-1.09 330.37-1.09L330.37-1.09L330.37-1.09Q329.73-1.09 329.73-1.73L329.73-1.73L329.73-1.73Q329.73-2.37 330.37-2.37ZM327.87-3.84L327.87-3.84L327.87-3.84Q328.51-3.84 328.51-3.20L328.51-3.20L328.51-3.20Q328.51-2.56 327.87-2.56L327.87-2.56L327.87-2.56Q327.23-2.56 327.23-3.20L327.23-3.20L327.23-3.20Q327.23-3.84 327.87-3.84ZM325.82-5.63L325.82-5.63L325.82-5.63Q326.46-5.63 326.46-4.99L326.46-4.99L326.46-4.99Q326.46-4.35 325.82-4.35L325.82-4.35L325.82-4.35Q325.18-4.35 325.18-4.99L325.18-4.99L325.18-4.99Q325.18-5.63 325.82-5.63ZM322.69-10.05L322.69-10.05L322.69-10.05Q323.33-10.05 323.33-9.41L323.33-9.41L323.33-9.41Q323.33-8.77 322.69-8.77L322.69-8.77L322.69-8.77Q322.05-8.77 322.05-9.41L322.05-9.41L322.05-9.41Q322.05-10.05 322.69-10.05ZM321.73-12.42L321.73-12.42L321.73-12.42Q322.37-12.42 322.37-11.78L322.37-11.78L322.37-11.78Q322.37-11.14 321.73-11.14L321.73-11.14L321.73-11.14Q321.09-11.14 321.09-11.78L321.09-11.78L321.09-11.78Q321.09-12.42 321.73-12.42ZM324.03-7.81L324.03-7.81L324.03-7.81Q324.67-7.81 324.67-7.17L324.67-7.17L324.67-7.17Q324.67-6.53 324.03-6.53L324.03-6.53L324.03-6.53Q323.39-6.53 323.39-7.17L323.39-7.17L323.39-7.17Q323.39-7.81 324.03-7.81ZM321.22-14.78L321.22-14.78L321.22-14.78Q321.86-14.78 321.86-14.14L321.86-14.14L321.86-14.14Q321.86-13.50 321.22-13.50L321.22-13.50L321.22-13.50Q320.58-13.50 320.58-14.14L320.58-14.14L320.58-14.14Q320.58-14.78 321.22-14.78ZM348.35-16L348.35-16L348.35-16Q347.71-16 347.71-16.64L347.71-16.64L347.71-16.64Q347.71-17.28 348.35-17.28L348.35-17.28L348.35-17.28Q348.99-17.28 348.99-16.64L348.99-16.64L348.99-16.64Q348.99-16 348.35-16ZM345.47-16L345.47-16L345.47-16Q344.83-16 344.83-16.64L344.83-16.64L344.83-16.64Q344.83-17.28 345.47-17.28L345.47-17.28L345.47-17.28Q346.11-17.28 346.11-16.64L346.11-16.64L346.11-16.64Q346.11-16 345.47-16ZM342.85-16L342.85-16L342.85-16Q342.21-16 342.21-16.64L342.21-16.64L342.21-16.64Q342.21-17.28 342.85-17.28L342.85-17.28L342.85-17.28Q343.49-17.28 343.49-16.64L343.49-16.64L343.49-16.64Q343.49-16 342.85-16ZM340.29-16L340.29-16L340.29-16Q339.65-16 339.65-16.64L339.65-16.64L339.65-16.64Q339.65-17.28 340.29-17.28L340.29-17.28L340.29-17.28Q340.93-17.28 340.93-16.64L340.93-16.64L340.93-16.64Q340.93-16 340.29-16ZM337.60-16L337.60-16L337.60-16Q336.96-16 336.96-16.64L336.96-16.64L336.96-16.64Q336.96-17.28 337.60-17.28L337.60-17.28L337.60-17.28Q338.24-17.28 338.24-16.64L338.24-16.64L338.24-16.64Q338.24-16 337.60-16ZM334.85-16L334.85-16L334.85-16Q334.21-16 334.21-16.64L334.21-16.64L334.21-16.64Q334.21-17.28 334.85-17.28L334.85-17.28L334.85-17.28Q335.49-17.28 335.49-16.64L335.49-16.64L335.49-16.64Q335.49-16 334.85-16ZM331.90-16L331.90-16L331.90-16Q331.26-16 331.26-16.64L331.26-16.64L331.26-16.64Q331.26-17.28 331.90-17.28L331.90-17.28L331.90-17.28Q332.54-17.28 332.54-16.64L332.54-16.64L332.54-16.64Q332.54-16 331.90-16ZM329.02-16L329.02-16L329.02-16Q328.38-16 328.38-16.64L328.38-16.64L328.38-16.64Q328.38-17.28 329.02-17.28L329.02-17.28L329.02-17.28Q329.66-17.28 329.66-16.64L329.66-16.64L329.66-16.64Q329.66-16 329.02-16ZM326.21-16L326.21-16L326.21-16Q325.57-16 325.57-16.64L325.57-16.64L325.57-16.64Q325.57-17.28 326.21-17.28L326.21-17.28L326.21-17.28Q326.85-17.28 326.85-16.64L326.85-16.64L326.85-16.64Q326.85-16 326.21-16ZM323.58-16L323.58-16L323.58-16Q322.94-16 322.94-16.64L322.94-16.64L322.94-16.64Q322.94-17.28 323.58-17.28L323.58-17.28L323.58-17.28Q324.22-17.28 324.22-16.64L324.22-16.64L324.22-16.64Q324.22-16 323.58-16Z" fill="none" stroke="#e9ffd4" stroke-width="1"></path></g></g><style>text {
  font-size: 64px;
  font-family: Arial Black;
  dominant-baseline: central;
  text-anchor: middle;
}</style></svg>