<svg height="512pt" viewBox="-16 0 512 512" width="512pt" xmlns="http://www.w3.org/2000/svg"><path d="m391.261719 62.714844c-32.886719-38.203125-90.164063-62.714844-151.261719-62.714844s-118.375 24.511719-151.261719 62.714844c-51.019531 7.910156-88.738281 51.238281-88.738281 103.285156 0 57.890625 47.109375 106 105 106 18.839844 0 37.117188-5.054688 53.335938-14.707031 50.59375 19.277343 112.734374 19.277343 163.328124 0 16.21875 9.652343 34.496094 14.707031 53.335938 14.707031 57.890625 0 105-48.109375 105-106 0-52.046875-37.71875-95.375-88.738281-103.285156zm0 0"/><path d="m360 362c0-21.902344-20.699219-41.101562-56.101562-51.300781.902343-6.300781 1.800781-12.300781 3-18-21.296876 5.402343-43.796876 9-66.898438 9-23.699219 0-46.800781-3.597657-68.699219-9.300781 1.199219 6 2.398438 12.300781 3.300781 18.601562-34.800781 10.800781-54.601562 29.097656-54.601562 51 0 24 22.800781 41.101562 54 50.699219 1.5-9.898438 2.703125-20.101563 3.300781-30.601563-17.699219-6.296875-27.300781-14.398437-27.300781-20.097656 0-4.800781 8.699219-13.5 27.597656-20.101562.601563 13.199218.300782 26.699218-.296875 40.203124 15.296875 5.699219 36.597657 9.898438 62.699219 9.898438 25.199219 0 46.199219-3.898438 61.5-9.300781-1.199219-13.800781-1.199219-27.898438-.597656-41.699219 20.097656 6.898438 29.097656 15.898438 29.097656 21 0 5.699219-10.199219 14.097656-28.5 20.699219.300781 10.5 1.5 20.699219 3 30.601562 32.097656-9.601562 55.5-26.699219 55.5-51.300781zm0 0"/><path d="m174 412.699219c-3.601562 25.199219-9.902344 48.902343-18.898438 69.300781h-35.101562v30h240v-30h-36.597656c-9.003906-20.101562-15.300782-43.800781-18.902344-68.699219-19.199219 5.699219-42 8.699219-64.5 8.699219-23.101562 0-46.5-3-66-9.300781zm0 0"/></svg>